<svg xmlns="http://www.w3.org/2000/svg" viewBox="0 0 263.18 73.99"><defs><style>.cls-1{fill:#a32444;}.cls-2{fill:#bc955b;}</style></defs><title>Gobierno_de_mexico</title><g id="Capa_1" data-name="Capa 1"><path class="cls-1" d="M97.66,11.56a4.8,4.8,0,0,0-2.81-.78,4.51,4.51,0,0,0-2.34.61,8.16,8.16,0,0,0-1.71,5.23c0,3.61,1.84,5.79,4.79,5.79a5.8,5.8,0,0,0,2-.32A9.73,9.73,0,0,0,97.28,19a5.7,5.7,0,0,0-1.82-.89l.28-1.34H103l.28,1.34-1.71.64a28.67,28.67,0,0,0-.19,3.73v.38a11.64,11.64,0,0,1-6.29,1.81c-5.21,0-8.45-2.95-8.45-7.76s4.17-8.22,9-8.22a12.49,12.49,0,0,1,5.7,1.33l.38.67c-.21,1.14-.68,3.21-.85,3.94a22.84,22.84,0,0,1-2.38-.12,11.66,11.66,0,0,0-.84-3"/><path class="cls-1" d="M116.37,21.56a9.64,9.64,0,0,0,.94-4.43c0-3.78-1.14-6.07-4-6.07a4.2,4.2,0,0,0-2.43.69,8.75,8.75,0,0,0-1.33,5c0,3.52,1.56,5.71,4.18,5.71a3.9,3.9,0,0,0,2.66-.86m-11-4.39a8.32,8.32,0,0,1,8.46-8.45c4.54,0,7.68,2.85,7.68,7.53a8.16,8.16,0,0,1-8.27,8.45c-4.66,0-7.87-2.86-7.87-7.53"/><path class="cls-1" d="M130.16,22.15a3.87,3.87,0,0,0,2.06.46,4.54,4.54,0,0,0,1.56-.27,3.08,3.08,0,0,0,.93-2.3c0-1.33-.82-2.19-2.45-2.19h-2.5v.76a11.31,11.31,0,0,0,.33,3.45l.07.09m-.4-6.47,3,.14A3.2,3.2,0,0,0,134,13.19a3,3,0,0,0-.51-1.8,3.15,3.15,0,0,0-1.88-.52,6.54,6.54,0,0,0-1.46.17l-.18.06a30.1,30.1,0,0,0-.19,3.71Zm-4,6.64a30.1,30.1,0,0,0,.19-3.71v-3.8a11.6,11.6,0,0,0-.32-3.44,4.1,4.1,0,0,0-1.77-.93l.28-1.34h3.5c.78,0,3.18-.13,4.26-.13,3.79,0,6.07,1.31,6.07,3.9a4,4,0,0,1-2.55,3.5c1.81.46,3.29,1.6,3.29,3.67,0,3-2.85,4.47-6.05,4.47-1.38,0-3.46-.19-4.87-.19h-3.65L123.87,23Z"/><path class="cls-1" d="M143.57,22.32a28.18,28.18,0,0,0,.19-3.71v-3.8a11.6,11.6,0,0,0-.32-3.44,4.1,4.1,0,0,0-1.77-.93L142,9.1h7.42l.29,1.34-1.91.66a30.1,30.1,0,0,0-.19,3.71v3.8a11.31,11.31,0,0,0,.33,3.45,4.26,4.26,0,0,0,1.77.93l-.29,1.32H142L141.67,23Z"/><path class="cls-1" d="M154.41,22.32a30.1,30.1,0,0,0,.19-3.71v-3.8a11.6,11.6,0,0,0-.32-3.44,4.16,4.16,0,0,0-1.77-.93l.28-1.34h6.09c2.76,0,5-.07,6.77-.19a10.25,10.25,0,0,1,.68,1.05c-.17,1.06-.59,3-.76,3.75a13.74,13.74,0,0,1-2.28-.12l-.57-2.53a14.35,14.35,0,0,0-2.3-.19c-.69,0-1.29,0-1.87,0-.05.68-.15,2.21-.15,3.9v1.12l4.61-.27.44.57c-.1.57-.22,1.24-.33,1.81l-4.72-.17v.74a11.31,11.31,0,0,0,.33,3.45,1.05,1.05,0,0,0,.15.15,4.35,4.35,0,0,0,2,.34,11.79,11.79,0,0,0,2.11-.19l.76-2.64a14.27,14.27,0,0,1,2.47.11c.06,1.44.06,3,0,4.48H152.79L152.51,23Z"/><path class="cls-1" d="M175,16.06l3.08.14a3.61,3.61,0,0,0,1.23-2.85,3.18,3.18,0,0,0-.51-2,3.11,3.11,0,0,0-1.86-.52,6.63,6.63,0,0,0-1.76.23,31,31,0,0,0-.18,3.71Zm-4,6.26a28.18,28.18,0,0,0,.19-3.71v-3.8a11.27,11.27,0,0,0-.32-3.44,4,4,0,0,0-1.77-.93l.29-1.34h3.69c.78,0,3.19-.13,4.31-.13,3.67,0,5.92,1.3,5.92,4,0,2-1.54,3.31-3,4.06a52.23,52.23,0,0,0,3,5.21l1.44.76-.29,1.33c-1.46,0-2.75,0-4.48.09-.73-1.73-1.73-3.84-2.93-6.18H175v.38a11.71,11.71,0,0,0,.32,3.45,4.26,4.26,0,0,0,1.77.93l-.29,1.33h-7.41L169.09,23Z"/><path class="cls-1" d="M188.3,11.37a6.76,6.76,0,0,0-1.77-.94l.29-1.33c1.57,0,3.5,0,4.94-.09a81.86,81.86,0,0,0,7.1,9.62c0-4.15-.25-6.79-.48-7.26a7,7,0,0,0-2.24-.94l.28-1.33h6.71l.29,1.33-1.9.69a122.24,122.24,0,0,0-.38,13l-2.95.28-2-2.85c-1.52-2.09-3.48-4.6-5.14-6.66a47.71,47.71,0,0,0,.42,7.15A7.43,7.43,0,0,0,194,23l-.28,1.34h-6.94L186.53,23l1.9-.66a51.31,51.31,0,0,0,.19-5.72c0-3-.05-4.87-.32-5.23"/><path class="cls-1" d="M215.87,21.56a9.64,9.64,0,0,0,.94-4.43c0-3.78-1.15-6.07-4-6.07a4.21,4.21,0,0,0-2.44.69,8.75,8.75,0,0,0-1.33,5c0,3.52,1.56,5.71,4.18,5.71a3.9,3.9,0,0,0,2.66-.86m-11-4.39a8.33,8.33,0,0,1,8.47-8.45c4.54,0,7.68,2.85,7.68,7.53a8.17,8.17,0,0,1-8.27,8.45c-4.66,0-7.88-2.86-7.88-7.53"/><path class="cls-1" d="M236,22.21a4.86,4.86,0,0,0,3.54.11c1.64-.89,2.57-2.89,2.57-5.74a6.65,6.65,0,0,0-1.73-4.91,5.57,5.57,0,0,0-2.89-.67,11.27,11.27,0,0,0-1.75.12,28.28,28.28,0,0,0-.19,3.69v3.8a11.38,11.38,0,0,0,.32,3.45,1.08,1.08,0,0,1,.13.15m-4.45.11a28.18,28.18,0,0,0,.19-3.71v-3.8a11.27,11.27,0,0,0-.32-3.44,4,4,0,0,0-1.77-.93l.29-1.34h3.4c.8,0,3.23-.13,4.36-.13,6.29,0,8.42,3.5,8.42,7.61,0,5.3-3.65,7.93-7.76,7.93-1.39,0-3.46-.19-4.87-.19h-3.55L229.64,23Z"/><path class="cls-1" d="M250.3,22.32a30.71,30.71,0,0,0,.18-3.71v-3.8a11.27,11.27,0,0,0-.32-3.44,4,4,0,0,0-1.77-.93l.29-1.34h6.09c2.76,0,5-.07,6.77-.19a12.28,12.28,0,0,1,.68,1.05c-.17,1.06-.59,3-.76,3.75a13.85,13.85,0,0,1-2.29-.12l-.56-2.53a14.48,14.48,0,0,0-2.31-.19c-.68,0-1.29,0-1.86,0-.06.68-.15,2.21-.15,3.9v1.12l4.6-.27.44.57c-.09.57-.21,1.24-.32,1.81l-4.72-.17v.74a11.71,11.71,0,0,0,.32,3.45,1.2,1.2,0,0,0,.16.15,4.33,4.33,0,0,0,2,.34,11.71,11.71,0,0,0,2.11-.19l.76-2.64a14.23,14.23,0,0,1,2.47.11c.06,1.44.06,3,0,4.48H248.68L248.39,23Z"/><path class="cls-1" d="M97.29,62.35h-11l-.48-2.22,3.33-1.08c.25-2,.6-6.49.79-10.39.26-4.94.26-7,0-7.86A8.61,8.61,0,0,0,87,39.21L87.46,37H99.57c1,3.55,3.58,10.66,5.51,15.22C107,47.07,109.71,40.36,110.6,37H122l.44,2.26-3.29,1.45.66,11.89c.19,3.49.38,5.33.86,6a7.07,7.07,0,0,0,2.95,1.55l-.48,2.22H110.79l-.48-2.22L113.8,59c.09-2.09-.51-10.68-.6-16.86L106.41,59.5a27.15,27.15,0,0,1-5.1,0c-1.55-3.61-4.76-12.14-7.13-17.31L94,49.93c-.16,5.67-.23,7.83.06,8.52.32.86,2.19,1.21,3.74,1.68Z"/><path class="cls-1" d="M145.18,26.41a16.52,16.52,0,0,1,2.44,4.44l-.63,1.3-10.37,2.62-.63-.31-.64-1.94c2.89-2,6.56-4.27,9.83-6.11M131.87,59a50.46,50.46,0,0,0,.31-6.18V46.5c0-2-.09-5.13-.54-5.73a7.1,7.1,0,0,0-2.95-1.56l.48-2.22h10.15c4.59,0,8.27-.12,11.28-.31a18.38,18.38,0,0,1,1.14,1.74c-.28,1.78-1,5-1.27,6.25a23.6,23.6,0,0,1-3.8-.19l-.95-4.22a23.26,23.26,0,0,0-3.84-.32c-1.14,0-2.15,0-3.1.07-.1,1.13-.26,3.67-.26,6.49v1.87l7.68-.44.72,1c-.16.95-.35,2.06-.53,3l-7.87-.29v1.24c0,2,.1,5.14.54,5.74a1.59,1.59,0,0,0,.26.26,7.15,7.15,0,0,0,3.35.56,19.23,19.23,0,0,0,3.53-.31l1.26-4.4a24.06,24.06,0,0,1,4.12.18c.1,2.41.1,4.94,0,7.48H129.17l-.48-2.22Z"/><path class="cls-1" d="M159.09,58.9c2.09-1.94,4.73-5.65,7.36-9.57-2.79-3.81-5.45-7.2-6.91-8.76a21.29,21.29,0,0,0-3-1.36L157,37c2.85,0,6.37-.06,8.69-.16a88.8,88.8,0,0,0,6.11,9.77c1.18-2.09,2.31-4.15,3.27-5.93a26.86,26.86,0,0,0-3.55-1.46L172,37h11.41l.48,2.22c-.76.35-1.91.92-2.66,1.3A54,54,0,0,0,174,49.67c2.85,3.93,5.64,7.48,7.13,9.1.89.44,2,.95,3,1.37l-.47,2.21c-2.79,0-6.31.07-8.59.16a95.19,95.19,0,0,0-6.41-10.08c-1.23,2.12-2.5,4.41-3.45,6.28,1.11.44,2.69,1,4.12,1.43l-.47,2.21H156.81l-.48-2.21c.77-.32,1.94-.83,2.76-1.24"/><path class="cls-1" d="M192.06,59a47.91,47.91,0,0,0,.32-6.18V46.5c0-2-.1-5.13-.55-5.73a7,7,0,0,0-2.94-1.56l.47-2.22h12.36l.48,2.22L199,40.32a48.16,48.16,0,0,0-.32,6.18v6.34c0,2,.1,5.14.54,5.74a7.07,7.07,0,0,0,2.95,1.55l-.48,2.22H189.36l-.47-2.22Z"/><path class="cls-1" d="M224.93,58.17c.31-.73.85-2.44,1.42-4.47a38.63,38.63,0,0,1,4.28.19c.1,1.55.16,4,.16,5.42l-.57,1.14A18.39,18.39,0,0,1,220.59,63C212.15,63,207,58.11,207,50.12c0-8.15,6.72-13.76,14.43-13.76a20.58,20.58,0,0,1,9.35,2.22l.63,1.11c-.35,1.93-1,4.72-1.43,6.56a33.91,33.91,0,0,1-4-.19,20.4,20.4,0,0,0-1.23-4.69,8.94,8.94,0,0,0-8.12-.26,13.91,13.91,0,0,0-2.69,8.56c0,5.52,2.79,9.2,7.48,9.2a7.48,7.48,0,0,0,3.52-.7"/><path class="cls-1" d="M254.66,57.76a16.2,16.2,0,0,0,1.55-7.39c0-6.3-1.9-10.11-6.69-10.11a7.08,7.08,0,0,0-4.06,1.14,14.67,14.67,0,0,0-2.21,8.27c0,5.87,2.59,9.51,7,9.51a6.59,6.59,0,0,0,4.44-1.42m-18.39-7.33a13.86,13.86,0,0,1,14.11-14.07c7.58,0,12.8,4.75,12.8,12.55A13.61,13.61,0,0,1,249.39,63c-7.76,0-13.12-4.76-13.12-12.56"/><path class="cls-2" d="M63.33,34.28a16.17,16.17,0,0,0-1.21-5.09.56.56,0,0,0-.45-.18.33.33,0,0,0-.26.09v.2A17.73,17.73,0,0,1,62.53,34a7.78,7.78,0,0,1-.47,3.22,11,11,0,0,0,0,2.5c0,.34-.17.49-.31.49s-.31-.13-.33-.52c-.07-.94-.1-1.76-.12-2.49v-.07a15.56,15.56,0,0,0-.34-3.45,7.33,7.33,0,0,0-1.61-2.49,7,7,0,0,1-.9-1.92c0-.15-.08-.3-.12-.47s-.1-.39-.15-.56l-.33-1.07a.28.28,0,0,0-.22-.11.65.65,0,0,0-.45.24.41.41,0,0,0-.08.32L58,30.7a5.52,5.52,0,0,0,1.1,1.58l0,0c.26.28.48.55.7.83a2.68,2.68,0,0,1,.51,1.45c.16,1.06.28,2.56.39,4.73l.61,3.11a10.27,10.27,0,0,1-.13,3.45c0,.46,0,.61.07.66l.07,0s.21,0,.54-.35c.86-1.06.81-4.62.77-7.49A14.75,14.75,0,0,1,63,36.39a6.94,6.94,0,0,0,.3-2.11"/><path class="cls-2" d="M60.23,29.59l0-.54a.88.88,0,0,0-.1-.3,1,1,0,0,0-.6-.47l-.2,0-.08,0s0,.05,0,.14a4.8,4.8,0,0,0,1.47,2.9l.1,0h0a.51.51,0,0,0,0-.3l-.4-.93a1.56,1.56,0,0,1-.15-.52"/><path class="cls-2" d="M56.42,37.9h-.05c-.14,0-.29-.14-.35-.35a9.1,9.1,0,0,1-.77-2.72c-.07-.39-.15-.76-.26-1.15A3.1,3.1,0,0,0,54,32a8.44,8.44,0,0,1-2.57-3.39c-.14-.31-.31-.5-.45-.5a.22.22,0,0,0-.17.11.76.76,0,0,0-.08.65,8.11,8.11,0,0,0,1.11,2,4.33,4.33,0,0,0,.48.48l.1.08A8,8,0,0,1,54,32.93a3.67,3.67,0,0,1,.55,1.67c0,.13,0,.26.07.38l0,.1a15.29,15.29,0,0,0,1.56,4.37,5.37,5.37,0,0,1,.44,1.43l.27,1.85c.09.47.24.6.32.59l.09,0a.8.8,0,0,0,.12-.51,36,36,0,0,0-.26-5.5A11.24,11.24,0,0,0,56,32.94a.58.58,0,0,0-.44-.31h0a.57.57,0,0,0,.09.34,13.58,13.58,0,0,1,1,4.41.61.61,0,0,1-.11.45Z"/><path class="cls-2" d="M53,28.44a.36.36,0,0,0-.39-.27.29.29,0,0,0-.24.1l0,.09a4.92,4.92,0,0,0,1.36,2.28l.17.08,0,0a.31.31,0,0,0-.05-.22,5.21,5.21,0,0,1-.87-2"/><path class="cls-2" d="M59,38.06h-.06c-.08,0-.21-.05-.33-.3a1.79,1.79,0,0,1-.12-.42L58,34.16a5.58,5.58,0,0,0-1.18-2.46,11.19,11.19,0,0,1-2.31-3.92c-.11-.43-.27-.55-.34-.55s-.17.13-.21.38a1,1,0,0,0,0,.5,8.07,8.07,0,0,0,2,3.66,3,3,0,0,1,1.07,1.93v0c.08.38.16.75.23,1.14v0a26.5,26.5,0,0,0,1.33,5A4.47,4.47,0,0,1,59,41.32c.06,1.18.12,1.9.19,2.51s.22.69.32.69.22-.17.27-.61a27,27,0,0,0,0-6,22.31,22.31,0,0,0-.4-3.24,3.25,3.25,0,0,0-.61-1.33c-.19-.23-.28-.28-.33-.29a1,1,0,0,0,0,.32,23.4,23.4,0,0,1,.7,4.12.63.63,0,0,1-.1.51Z"/><path class="cls-2" d="M57,30.35a5.57,5.57,0,0,1-.6-1.4l-.15-.8a.83.83,0,0,0-.18-.4.71.71,0,0,0-.48-.25.21.21,0,0,0-.18.07.24.24,0,0,0,0,.21,5.63,5.63,0,0,0,1.52,3h0c.06.06.1.1.17.1h0l.05,0s0-.06,0-.18a.85.85,0,0,0-.15-.34"/><path class="cls-2" d="M53.51,37.86l0,.07c.07.21.13.4.21.6A1.17,1.17,0,0,0,54,39c.08.09.16.14.23.13s.15-.11.18-.18a1.39,1.39,0,0,0,0-.47c-.17-3.19-.61-5-1.42-5.88-.17-.18-.25-.18-.25-.18s0,0,0,.15a.49.49,0,0,0,.1.32,5.7,5.7,0,0,1,.51,1.44.51.51,0,0,1-.06.44l-.08,0h-.06c-.12,0-.25-.12-.35-.35a3.86,3.86,0,0,0-1.66-2,10.87,10.87,0,0,1-2.42-1.86,6.58,6.58,0,0,1-.65-1c0-.08-.06-.14-.15-.16s-.3.22-.35.43a.3.3,0,0,0,0,.28,5,5,0,0,0,2.05,2.14A5.54,5.54,0,0,1,52.47,35a30.47,30.47,0,0,1,1,2.87"/><path class="cls-2" d="M49.22,29a.39.39,0,0,0-.31.13v.07a4.35,4.35,0,0,0,1.62,1.65l.16,0h.05s0-.08-.1-.18a4.83,4.83,0,0,1-1.1-1.53.37.37,0,0,0-.32-.16"/><path class="cls-2" d="M46.31,32.24l.1,0a9.46,9.46,0,0,1,.93.37,2.74,2.74,0,0,1,.84.56,14.31,14.31,0,0,1,1.59,1.95l.09.12A21.4,21.4,0,0,0,51.18,37a.32.32,0,0,0,.26.12A.19.19,0,0,0,51.6,37a.4.4,0,0,0,0-.31,20.45,20.45,0,0,0-1.43-3.41.72.72,0,0,0-.63-.31h0v.06l.33.62,0,.15v.06a.18.18,0,0,1-.17.11h0l-.13-.06h0l0,0a5.22,5.22,0,0,0-.88-1.06,1.83,1.83,0,0,0-.52-.35c-.32-.14-.71-.29-1.19-.47a8.62,8.62,0,0,1-.87-.52c-.28-.25-.59-.52-.92-.84A.35.35,0,0,0,45,30.6a.18.18,0,0,0-.15.08.45.45,0,0,0,0,.42,2.64,2.64,0,0,0,.92.9,2.83,2.83,0,0,0,.55.24"/><path class="cls-2" d="M58.07,45c-.85-.53-1.45-.92-1.92-1.26-3.31-2.5-6.66-4.93-10.23-7.39a.29.29,0,0,0-.19-.08s0,0-.06.06a.64.64,0,0,0,.34.62l10.67,7.84.13.08a1,1,0,0,1,.39.32c0,.08.11.3-.19.52A2.3,2.3,0,0,1,56,46a2.93,2.93,0,0,1-1.83-.7c-2.85-2.23-5.68-4.51-8.3-6.64a.4.4,0,0,0-.2-.08l-.06,0a.47.47,0,0,0,0,.4.66.66,0,0,0,.29.39c2.76,2.23,5.53,4.49,8.22,6.71a3.49,3.49,0,0,0,1.8.5,3.64,3.64,0,0,0,2.26-.93.46.46,0,0,0-.1-.66"/><path class="cls-2" d="M54.09,44.43a7.35,7.35,0,0,0,1.22.75.6.6,0,0,0,.24.06c.07,0,.11,0,.12-.05s0-.15-.15-.26L46,37.54l-.13,0-.07,0c0,.08,0,.3.28.53Z"/><path class="cls-2" d="M51.77,44.85l-6.21-5.2a.32.32,0,0,0-.19-.07l0,0s0,.2.17.37c1.8,1.65,3.76,3.37,5.8,5.09a7,7,0,0,0,.85.64.68.68,0,0,0,.33.09c.12,0,.21,0,.23-.12s0-.05,0-.11Z"/><path class="cls-2" d="M47,31.3l.16,0h0a.75.75,0,0,0,0-.12,1.6,1.6,0,0,0-.26-.42,1.2,1.2,0,0,0-.83-.37.15.15,0,0,0-.11,0l0,.12a3.09,3.09,0,0,0,1,.75"/><path class="cls-2" d="M52.91,47.13a1.76,1.76,0,0,0,.94-.28.22.22,0,0,0,.1-.18.26.26,0,0,0-.16-.17l-.15,0-.19,0-.1,0-.42,0a2.15,2.15,0,0,1-1.4-.54c-1.53-1.28-2.72-2.38-3.78-3.35l-.1-.08c-.79-.73-1.54-1.41-2.35-2.11a.17.17,0,0,0-.16-.06h-.07a.28.28,0,0,0,0,.2c0,.08.06.12.18.24l.36.37c1.87,1.75,3.55,3.34,5.3,4.89a3.82,3.82,0,0,0,1.24.88,3.09,3.09,0,0,0,.75.11"/><path class="cls-2" d="M44.51,41.1c1.37,1.49,2.81,3,4.42,4.49a2.11,2.11,0,0,0,1.1.65l.08,0a.35.35,0,0,0-.11-.14c-1.42-1.21-2.93-2.71-4.22-4l-.26-.27-.09-.1a6.17,6.17,0,0,0-.82-.78h-.13a.27.27,0,0,0,0,.17"/><path class="cls-2" d="M50.69,47.37a1.42,1.42,0,0,0,.36,0,.09.09,0,0,0,.08-.12.29.29,0,0,0-.29-.21,3,3,0,0,1-1.77-.68c-1.65-1.52-3.26-3.1-4.81-4.72a.29.29,0,0,0-.16-.09h0a.73.73,0,0,0,.09.45,1.31,1.31,0,0,0,.23.29l0,0c.9,1,2.1,2.15,3.63,3.65a5.41,5.41,0,0,0,1.48,1.14,2.66,2.66,0,0,0,1.16.3"/><path class="cls-2" d="M48.34,46.87c.08,0,.11,0,.11-.08a.36.36,0,0,0-.31-.31c-.75-.13-1.74-1.24-2.79-2.43l-.54-.62-.12,0-.08.1a.17.17,0,0,0,0,.18l2.21,2.54a2,2,0,0,0,1.5.67Z"/><path class="cls-2" d="M19.7,20.48a1.26,1.26,0,0,0-.13,1.1,2.43,2.43,0,0,0,2.36,1.57H22c.27,0,.48-.08.53-.2s-.08-.24-.15-.31a1.34,1.34,0,0,1-.55-1.5,1.5,1.5,0,0,1,1.47-.91,2.06,2.06,0,0,1,.44,0,1.81,1.81,0,0,0,.87-.25,1.94,1.94,0,0,1,1.23-.56,1.38,1.38,0,0,1,.58.11h0a.41.41,0,0,1,0,.61,1,1,0,0,1-.51.26,2.69,2.69,0,0,0-1,.43c0,.07-.07.12-.06.15s0,0,.26.09a1.34,1.34,0,0,0,.34,0,.89.89,0,0,0,.35-.06,7.22,7.22,0,0,0,1.85-1.17c.2-.18.2-.3,0-.51a2.34,2.34,0,0,0-1.63-.69,2.19,2.19,0,0,0-.65.1,4.66,4.66,0,0,1-.9.12,1.85,1.85,0,0,1-.63-.08l-1.31-.38a1.5,1.5,0,0,0-.58-.13.71.71,0,0,0-.51.2l-.09.09.15.1c.12.1.17.22.13.31s-.23.19-.39.21l-.3,0a.47.47,0,0,0-.4.15,4.3,4.3,0,0,0-.87,1.09m1-.7h0a.82.82,0,0,1,.3-.07.77.77,0,0,1,.34.08.49.49,0,0,0,.18.05.4.4,0,0,0,.26-.1,2.22,2.22,0,0,1,.82-.64A1.53,1.53,0,0,1,23,19a1.38,1.38,0,0,1,.88.33c.11.13.15.24.11.34s-.14.17-.34.19h-.34a4.06,4.06,0,0,0-.87.11,1.46,1.46,0,0,0-1.14,1.63v0c0,.14,0,.51-.3.52a.63.63,0,0,1-.39-.2,1.55,1.55,0,0,1-.55-1.14,1.5,1.5,0,0,1,.61-1"/><path class="cls-2" d="M22,17.61a3.56,3.56,0,0,0,.92.37H23a.4.4,0,0,0,.26-.15,2,2,0,0,0,.32-.81A2.47,2.47,0,0,1,24.16,16l.13-.16a1.3,1.3,0,0,0,.37-.65A1,1,0,0,0,24.34,14v.22a2.65,2.65,0,0,1-1.2,1.89l-.27.19a4.23,4.23,0,0,0-.72.58c-.2.18-.31.36-.29.51a.25.25,0,0,0,.14.22"/><path class="cls-2" d="M24.3,16.41c-.1,0-.17.06-.13.13.44.76.25,1.05-.41,1.36-.24.07-.1.29.11.27a.43.43,0,0,0,.21,0,1,1,0,0,0,.56-1.47c-.1-.21-.25-.26-.34-.25"/><path class="cls-2" d="M25.28,14.92c.12,0,.18-.19.2-.35s0-.62.29-.67.13.29.22.34.15,0,.17-.15A1.36,1.36,0,0,0,25.72,13l-.07,0s0,0-.08.12a5.56,5.56,0,0,0-.33,1.66c0,.1,0,.14,0,.14"/><path class="cls-2" d="M25.21,16h.05c1.77-.82,2.13-1.87,2.2-2.43A1.54,1.54,0,0,0,27,12.22h0a2.62,2.62,0,0,1-.46,2.31c-.4.32-.86.67-1.32,1l-.2.14c-.07.06-.1.12-.07.18a.3.3,0,0,0,.27.18"/><path class="cls-2" d="M27.39,16.13a6,6,0,0,1-1.36.8,1.72,1.72,0,0,0-.7.46.27.27,0,0,0,0,.12h.09a7.78,7.78,0,0,0,2.5-1.36c.52-.43.67-.84.45-1.27-.06-.08-.1-.08-.14-.08a.32.32,0,0,0-.17.08c-.43.4-2.19,1.32-2.51,1.57-.11.09-.14.15-.14.18a.1.1,0,0,0,.15.08c.27-.07,1.44-.81,1.72-.94s.45-.11.48-.06-.12.27-.32.41"/><path class="cls-2" d="M25,18.53a2,2,0,0,0,.58-.14,13.65,13.65,0,0,1,2.44-1c.09,0,.22-.06.27,0a.35.35,0,0,1-.09.59l-1.05.47c-.06.05-.07.08-.07.09a.49.49,0,0,0,.34.07h0c1-.24,1.45-.65,1.32-1.25a.59.59,0,0,0-.53-.34,1.69,1.69,0,0,0-.9.16c-.52.2-1.31.65-1.79.82a3.47,3.47,0,0,0-.61.31c-.11.06-.43.35.05.28"/><path class="cls-2" d="M28.27,13.84c.3-.26.59-1,.79-.6a1.29,1.29,0,0,1-.21,1.08c-.13.19,0,.3.14.38l.07,0s.06,0,.1-.08a2.26,2.26,0,0,0,.3-1.62,1.22,1.22,0,0,0-.45-.81l-.14-.06c-.05,0-.11.05-.15.13l-.17.61a1.2,1.2,0,0,1-.33.58.69.69,0,0,0-.24.45c0,.17.08.08.29-.09"/><path class="cls-2" d="M29.9,14.62a6.26,6.26,0,0,1,1.51.65l.33.18c.38.2.82.43,1.3.63l.15.05c.06,0,.12-.06.18-.12h0A2.24,2.24,0,0,0,34,14.72l0-.05h0a1.7,1.7,0,0,1-.5.09,1.49,1.49,0,0,1-.58-.11,6.51,6.51,0,0,0-2.7-.86h-.11l0,0h0V14l0,0a8.48,8.48,0,0,1,2.83,1.13l0,0c.07,0,.24.14.25.23l0,.07a.27.27,0,0,1-.23.09l-.13-.06-.14-.07A20.46,20.46,0,0,0,30,14.34h0c-.1,0-.13.06-.13.09a.2.2,0,0,0,.1.19"/><path class="cls-2" d="M28.79,19.51c-.12,0-.33-.32-.42-.56l-.09-.05-.09.05a.23.23,0,0,0,0,.18,1.32,1.32,0,0,0,.48.82.41.41,0,0,0,.26.07.48.48,0,0,0,.45-.39,1.23,1.23,0,0,0-.5-1l0,0a1.5,1.5,0,0,1,.18.76c0,.13-.12.12-.19.12"/><path class="cls-2" d="M30.21,18.76c-.23,0-.56-.57-.66-.76l-.12-.07h-.06a.52.52,0,0,0,0,.21,2.14,2.14,0,0,0,.55,1.09.5.5,0,0,0,.34.11,1.37,1.37,0,0,0,.9-.57.58.58,0,0,0-.06-.65,4.69,4.69,0,0,0-1.87-1.24l-.08,0h0l0,0a7.8,7.8,0,0,0,.62.48h0a3.14,3.14,0,0,1,.78.65.47.47,0,0,1,.07.41.71.71,0,0,1-.44.31"/><path class="cls-2" d="M29.06,16.17v0a13.36,13.36,0,0,0,2.7,1.54.73.73,0,0,0,.36.11.47.47,0,0,0,.32-.16.74.74,0,0,0,.17-1A5.77,5.77,0,0,0,29.52,15h-.07v0l0,.07s.06.06.15.09a7.62,7.62,0,0,1,2.19,1.2l0,0c.14.11.3.23.25.45a1,1,0,0,1-.24.3l-.12,0a2.17,2.17,0,0,1-.77-.29l-.14-.08h0a8.14,8.14,0,0,0-1.64-.71Z"/><path class="cls-2" d="M51.61,14.4s0,.15.18.29c3.75,2.71,6.73,6.6,9.14,11.92a.6.6,0,0,1,0,.46.37.37,0,0,1-.24.1,1.51,1.51,0,0,1-.71-.28,8.31,8.31,0,0,1-2.19-2.17,33.78,33.78,0,0,0-8.57-9.09.29.29,0,0,0-.19-.11l-.07,0a.66.66,0,0,0,.22.56c2.6,1.77,5.45,5,8.72,10a5.13,5.13,0,0,0,4.47,2.24l.56,0c.3-.07.34-.15.34-.15s0-.11-.17-.21a4.67,4.67,0,0,1-1.72-2.41,28,28,0,0,0-9.28-11.07.57.57,0,0,0-.29-.09.16.16,0,0,0-.15.07"/><path class="cls-2" d="M59.36,26a.66.66,0,0,0,.41.19.14.14,0,0,0,.13-.06c.06-.11,0-.34-.13-.63a31.43,31.43,0,0,0-9.1-10.32,1.07,1.07,0,0,0-.42-.1c-.14,0-.23.05-.23.08s0,.12.3.27c2.33,1.84,5.23,4.53,9,10.57"/><path class="cls-2" d="M55.61,25.93a.89.89,0,0,1-.61-.41,35.67,35.67,0,0,0-6.17-6.6l-.08-.06,0,.08a.9.9,0,0,0,0,.78,35.84,35.84,0,0,1,4.18,4.37l0,.05a24.64,24.64,0,0,0,2.28,2.46,1.66,1.66,0,0,0,.85.25.79.79,0,0,0,.65-.29.75.75,0,0,0,.11-.63,25.31,25.31,0,0,0-7.71-8.62c-.08-.07-.12-.1-.16-.1h0a.92.92,0,0,0,.28.79,37.74,37.74,0,0,1,6.54,7.24.58.58,0,0,1,.08.55.29.29,0,0,1-.24.13"/><path class="cls-2" d="M48.29,20.46l-.06,0a.53.53,0,0,0,0,.44,32.29,32.29,0,0,1,4.4,4.71.66.66,0,0,1,.1.7.72.72,0,0,1-.63.38.74.74,0,0,1-.52-.19c-1-.87-2-1.87-2.87-2.84l-1.2-1.25-.11,0-.11.1a.56.56,0,0,0,0,.49l3,3.18a3.92,3.92,0,0,0,1.47,1.1,3.15,3.15,0,0,0,.67.06,1.11,1.11,0,0,0,.92-.36,1.22,1.22,0,0,0,.06-1.08,18.86,18.86,0,0,0-5.09-5.41Z"/><path class="cls-2" d="M47.51,21.24a.38.38,0,0,0,0,.32,45.08,45.08,0,0,0,4.19,4.11l.1,0,.09-.05a.19.19,0,0,0,0-.19,27.47,27.47,0,0,0-4.27-4.29Z"/><path class="cls-2" d="M47.06,23.6a.38.38,0,0,0-.19-.06.2.2,0,0,0-.19.11.35.35,0,0,0,.1.34,11.94,11.94,0,0,1,2.52,2.72.62.62,0,0,1,.05.65.69.69,0,0,1-.6.3,1.21,1.21,0,0,1-.58-.16,15.34,15.34,0,0,1-2.4-2.07l-.17-.17s-.08,0-.12.13a.44.44,0,0,0,0,.39,10.83,10.83,0,0,0,2.69,2.45,4.2,4.2,0,0,0,1,.12A1,1,0,0,0,50,28a1.43,1.43,0,0,0,0-1.2,13.4,13.4,0,0,0-2.95-3.24"/><path class="cls-2" d="M46,24.72,48.39,27l.17.06.12-.06,0-.09a10.11,10.11,0,0,0-2.84-2.71.62.62,0,0,0,.1.51"/><path class="cls-2" d="M45.76,29.77A1.51,1.51,0,0,0,47,29.19a.86.86,0,0,0,.08-.82,11.36,11.36,0,0,0-2-2.23l-.09,0q-.09,0-.15.12a.24.24,0,0,0,0,.22,8.74,8.74,0,0,1,1.51,1.74.69.69,0,0,1-.06.66.83.83,0,0,1-.68.34.75.75,0,0,1-.43-.11,10.78,10.78,0,0,1-1.48-1.4l-.09,0a.19.19,0,0,0-.15.1.34.34,0,0,0,0,.28,5.16,5.16,0,0,0,1.87,1.66,1.48,1.48,0,0,0,.49.08"/><path class="cls-2" d="M45.08,28.28a.43.43,0,0,0,.25.1.31.31,0,0,0,.24-.14.34.34,0,0,0-.09-.34,5.78,5.78,0,0,0-1.25-1.17.35.35,0,0,0-.18-.06.24.24,0,0,0-.23.23c0,.1.08.18.22.32.39.44.68.72,1,1.06"/><path class="cls-2" d="M44.07,29.7l-1.16-1.32-.11,0a.14.14,0,0,0-.14.09.31.31,0,0,0,0,.28l.73.84a.52.52,0,0,1,.18.39c0,.26-.26.48-.49.68l0,0a1.65,1.65,0,0,0-.37.39.3.3,0,0,0,0,.29.22.22,0,0,0,.16.08l.13,0,1-.8a.64.64,0,0,0,.14-.88"/><path class="cls-2" d="M42.56,30.15l.11.06.12-.07a.21.21,0,0,0,0-.19l-.58-1-.12-.07a.29.29,0,0,0-.19.11v.14Z"/><path class="cls-2" d="M42.72,13.16a1.76,1.76,0,0,0,.52.48,17.06,17.06,0,0,1,4.3,2.24.47.47,0,0,1,.14.51.43.43,0,0,1-.39.25.84.84,0,0,1-.41-.12,13.55,13.55,0,0,0-3.52-1.89l0,.08a.32.32,0,0,0,.23.34,18.21,18.21,0,0,1,3.76,2.22,1,1,0,0,0,.51.19.5.5,0,0,0,.41-.27c.27-.73-.06-1.41-1-2.07a22.4,22.4,0,0,0-4.45-1.95Z"/><path class="cls-2" d="M43.67,15.76l-.07.06a.42.42,0,0,0,.16.41c.29.2.72.44,1.22.73a7.06,7.06,0,0,1,2.16,1.52.91.91,0,0,1,0,.89.54.54,0,0,1-.46.29.68.68,0,0,1-.36-.11L44.2,18.3l-.05,0h0a1,1,0,0,0,.33.71A11.21,11.21,0,0,0,46,20.07l.15.08a2.22,2.22,0,0,0,.86.33.55.55,0,0,0,.33-.11,1.85,1.85,0,0,0,.36-1.92,15.18,15.18,0,0,0-4-2.69"/><path class="cls-2" d="M46.18,18.86l.15,0c.15,0,.3-.07.27-.1A13.85,13.85,0,0,0,44,17.14a.54.54,0,0,0,.11.26,11.71,11.71,0,0,0,2.12,1.46"/><path class="cls-2" d="M44.11,22.21l1.32.95a.77.77,0,0,0,.42.15.51.51,0,0,0,.32-.12,2,2,0,0,0,.6-.83,1,1,0,0,0-.42-1.26l-1.79-1.3-.08,0-.06,0a.47.47,0,0,0,.07.41,8.22,8.22,0,0,1,1.37,1.2.73.73,0,0,1,.12.76.44.44,0,0,1-.38.28.56.56,0,0,1-.35-.14l-1.06-.65c-.06,0-.1,0-.14.13a.39.39,0,0,0,.06.41"/><path class="cls-2" d="M45.17,21.75a.24.24,0,0,0,.21-.15.22.22,0,0,0-.06-.24l-.87-.5-.12.08v.18l.75.62Z"/><path class="cls-2" d="M42.48,24.62a.32.32,0,0,0,.05.33l1.32,1a.56.56,0,0,0,.27.08.89.89,0,0,0,.53-.28l.18-.28c.35-.56.6-1,.2-1.54a3.63,3.63,0,0,0-1.3-1.1.16.16,0,0,0-.12.11.42.42,0,0,0,0,.41l.67.71a.69.69,0,0,1,0,.72.67.67,0,0,1-.54.38.47.47,0,0,1-.3-.1l-.73-.54-.11,0c-.07,0-.13.07-.16.18"/><path class="cls-2" d="M43,23.81a.2.2,0,0,0,.07.22l.46.35.13,0a.15.15,0,0,0,.13-.11.24.24,0,0,0-.06-.26l-.46-.35-.08,0a.21.21,0,0,0-.19.13"/><path class="cls-2" d="M40.56,26.38a.16.16,0,0,0-.13.1.38.38,0,0,0,0,.37l1,1.16a.52.52,0,0,0,.39.15A1.58,1.58,0,0,0,43,27.27a1,1,0,0,0,.1-1,6,6,0,0,0-1-1.25L42,25a.19.19,0,0,0-.14.12.44.44,0,0,0,0,.43l.46.61a.84.84,0,0,1-.07.78.61.61,0,0,1-.52.34.69.69,0,0,1-.4-.15l-.61-.67Z"/><path class="cls-2" d="M41.73,26.72a.19.19,0,0,0,.16-.31l-.53-.52-.07,0a.16.16,0,0,0-.15.1.23.23,0,0,0,0,.21l.55.52Z"/><path class="cls-2" d="M43.54,40c0,.13.06.35.24.35a.61.61,0,0,0,.43-.25c1.1-1.42.72-5.89-.68-8.11l-.09,0a.19.19,0,0,0-.16.11.41.41,0,0,0,0,.39c1.09,2.48,1.45,4.34,1.14,5.91,0,.18-.13.41-.32.41s-.28-.09-.38-.57a10.92,10.92,0,0,0-1.58-4.51,1.43,1.43,0,0,0,0,.89A14.34,14.34,0,0,1,43.54,40"/><path class="cls-2" d="M42.61,32.47l0,0a.9.9,0,0,0-.06.61,9.63,9.63,0,0,1,1.33,3.65l0,.08.09-.09a10.14,10.14,0,0,0-1.34-4.24Z"/><path class="cls-2" d="M35.88,12l.6.26c.33.16.66.34,1,.53,1.25.71,2,1.56,2.56,4l.07.27c.52,2.35.83,3.77-1.54,5.68a.58.58,0,0,0-.08.6.25.25,0,0,0,.26.18h0a4.34,4.34,0,0,0,1.87-1.77c1.39-1.86-.14-6.08-.65-7.47a3.54,3.54,0,0,0-2.06-2L35.29,11a.94.94,0,0,1-.4-.82c0-.32.24-.39.58-.57a2.4,2.4,0,0,1,1.14-.23c.33,0,.65,0,1,0a23.27,23.27,0,0,1,11.84,3.93l0,0a.45.45,0,0,1,.09.48c-.1.19-.37.29-.89.31a1,1,0,0,1-.75-.29l-.34-.55c0-.09-.06-.13-.1-.13s-.1.05-.13.15l-.14.73c0,.11,0,.15.13.17a4.89,4.89,0,0,0,1.69.27,4.31,4.31,0,0,0,2.67-1c.13-.18.18-.32.14-.39s-.21-.15-.45-.16H51.1a4.07,4.07,0,0,1-2.44-.74A24.29,24.29,0,0,0,36.08,9a2.27,2.27,0,0,0-1.1.2,1.38,1.38,0,0,0-.73.91,1.32,1.32,0,0,0,.33,1.11,3,3,0,0,0,1.3.79"/><path class="cls-2" d="M16.25,20.83c.19.57.47.89.87,1h1.71a.38.38,0,0,0,.27-.34.29.29,0,0,0-.19-.3l-1.36,0c-.51,0-.77-.72-1-1.45a3.79,3.79,0,0,1,1.07-3.54l.11-.16-.09,0h0a.32.32,0,0,1-.14-.19.46.46,0,0,1,.15-.32l.23-.2,0-.08-.14-.05h0a7.11,7.11,0,0,0-2,1.85A1.1,1.1,0,0,0,15.59,18Z"/><path class="cls-2" d="M19.72,19.49l-.07,0a3.29,3.29,0,0,1-.87.16,1.36,1.36,0,0,1-1.06-.4l-.1,0-.09.06a.26.26,0,0,0,0,.28,1.36,1.36,0,0,0,1,.54,1.81,1.81,0,0,0,1-.44c.09-.05.1-.12.09-.15"/><path class="cls-2" d="M17.29,17.93a.62.62,0,0,0-.05.52.5.5,0,0,0,.32.23l.31,0a4.4,4.4,0,0,0,2.46-1.18l.07-.11-.08,0a5.46,5.46,0,0,1-2.15.75.35.35,0,0,1-.28-.21c-.07-.15,0-.36.19-.65a5.73,5.73,0,0,0,.81-.87.21.21,0,0,0,0-.27,1,1,0,0,1,0-.3,1.62,1.62,0,0,1,0-.23.76.76,0,0,1,.18-.46,1.82,1.82,0,0,1,.42-.35.28.28,0,0,0,.11-.33.45.45,0,0,0-.42-.31c-.5.19-.68.44-.61.87a1.29,1.29,0,0,1-.26,1.16,6.7,6.7,0,0,0-1,1.67"/><path class="cls-2" d="M19.3,15.58a.3.3,0,0,0,0,.28,1,1,0,0,1,.18,1l0,0a1,1,0,0,0,.37-.61.88.88,0,0,0-.21-.69c-.06-.09-.15-.18-.24-.16a.32.32,0,0,0-.15.17"/><path class="cls-2" d="M32.4,57.4a4.85,4.85,0,0,1,1.38,2.47c.46,1.27.92,2.59,1.9,2.83a1.28,1.28,0,0,0,.38.07h0a.36.36,0,0,0-.11-.11c-.6-.2-.93-1.19-1.32-2.32-.44-1.34-.94-2.86-1.94-3.17l-.33,0a.71.71,0,0,0-.21,0s0,.1.2.23"/><path class="cls-2" d="M34.18,57.14a.9.9,0,0,0-.25,0,.34.34,0,0,0,.11.12c.67.37,1.08,1.46,1.52,2.61.53,1.4,1.06,2.84,2.06,2.82h0l.21,0h0c-.59-.29-1-1.32-1.36-2.4-.52-1.39-1.1-3-2.27-3.15"/><path class="cls-2" d="M37.47,60.21v0c.41,1.1.91,2.49,2,2.52l.13,0,0,0a4.24,4.24,0,0,1-1.31-2.2c-.28-.84-.52-1.57-1.4-1.81h-.11a.19.19,0,0,0-.1,0l.06.11c.3.16.5.69.74,1.37"/><path class="cls-2" d="M34.23,56.41h.36c.31,0,.34-.25.34-.32a.3.3,0,0,0-.23-.29c-.25,0-.47,0-.71,0h0a4.3,4.3,0,0,1-1.48-.16l-.18-.08a.73.73,0,0,0-.3-.07c-.09,0-.22,0-.26.11a.44.44,0,0,0,0,.41c.27.34.85.49,1.79.47.23,0,.47,0,.67,0"/><path class="cls-2" d="M43.64,56.31a1.14,1.14,0,0,0-1.16-.74,1.27,1.27,0,0,0-1.35,1.23.29.29,0,0,0,.06.24.39.39,0,0,0,.25.1.29.29,0,0,0,.29-.2c.11-.6.46-.66.61-.67a.65.65,0,0,1,.59.4.52.52,0,0,1-.22.58.67.67,0,0,0-.29,1,2.22,2.22,0,0,1,0,2.32.77.77,0,0,0,.44,1.07h0a.43.43,0,0,1,.07.47.6.6,0,0,1-1.12-.15.37.37,0,0,0-.36-.33.35.35,0,0,0-.27.14.28.28,0,0,0,0,.27c.37.76.83,1.12,1.4,1.11a2,2,0,0,0,.8-.21,1,1,0,0,0,.16-1.53c-.29-.16-.34-.53-.17-1.08a2,2,0,0,0,0-1.89.91.91,0,0,1,.14-1.05,1,1,0,0,0,.17-1.06"/><path class="cls-2" d="M31.48,61.53a.4.4,0,0,0-.37-.26.2.2,0,0,0-.14,0l-.3.55a.5.5,0,0,1-.44.28.52.52,0,0,1-.42-.19.49.49,0,0,1-.08-.46.94.94,0,0,1,.39-.57.77.77,0,0,0,0-.78,2.71,2.71,0,0,1-.15-1.8l.21-.82a.63.63,0,0,0-.26-.71.58.58,0,0,1-.28-.67.5.5,0,0,1,.47-.38.54.54,0,0,1,.22,0,.59.59,0,0,1,.34.41c0,.06.06.13.09.18a.47.47,0,0,0,.38.21.22.22,0,0,0,.19-.09.57.57,0,0,0,0-.45,1.34,1.34,0,0,0-1.36-1,1.08,1.08,0,0,0-.8.32,1,1,0,0,0-.28.79.89.89,0,0,0,.29.74h0a1.08,1.08,0,0,1,0,1.18,1.89,1.89,0,0,0,0,1.59,1.69,1.69,0,0,1,0,1.33l-.1.18A.85.85,0,0,0,29,62a1.09,1.09,0,0,0,1.12.85,1.69,1.69,0,0,0,.81-.24,1.5,1.5,0,0,0,.57-1.07"/><path class="cls-2" d="M41,63.1a.69.69,0,0,0-.41.15,1.39,1.39,0,0,1-.72.2h-.17c-2.4,0-4.77,0-7.26-.15a1.79,1.79,0,0,1-.71-.2,1.12,1.12,0,0,0-.48-.11.3.3,0,0,0-.25.09.53.53,0,0,0,0,.41c.49.7,4.51.63,6,.6l1.54,0c.52,0,1,0,1.31,0a2.65,2.65,0,0,0,1.36-.4.29.29,0,0,0,.15-.33A.4.4,0,0,0,41,63.1"/><path class="cls-2" d="M32.33,13c2.31.53,3.94,1.27,4.37,3.21a1.9,1.9,0,0,0,.46,1.47l.07,0,0-.18c0-1.92-.57-3.21-1.84-3.84a8.73,8.73,0,0,0-2.82-1.14.93.93,0,0,1-.82-1,1.24,1.24,0,0,1,1.14-1.22H33c.21,0,.31-.09.32-.14s0-.08-.14-.11h-.28c-.78,0-1.52.19-1.59,1.41-.12.91.19,1.39,1,1.52"/><path class="cls-2" d="M32.65,11h0c.41,0,.57.16.58.31s-.14.34-.58.38l-.08,0a.42.42,0,0,0,.13.08l.46,0a.87.87,0,0,0,.74-.28.33.33,0,0,0,0-.32.79.79,0,0,0-.73-.32,1.85,1.85,0,0,0-.46.08"/><path class="cls-2" d="M35.84,13.28a.54.54,0,0,0,.37.11c.2,0,.32-.07.32-.09l-.05-.06A2.64,2.64,0,0,0,34,12.55c-.24.12,1.59.08,1.87.73"/><path class="cls-2" d="M36.23,17a4,4,0,0,0-1.62-1.67c-.16-.08-.19.06-.16.1a6,6,0,0,1,2.1,3.28.93.93,0,0,1-.16.72l-.1.08a2.94,2.94,0,0,0-.3.31.27.27,0,0,0,0,.3.38.38,0,0,0,.33.2h.09l1.1-.85a.44.44,0,0,0,.14-.32.4.4,0,0,0-.08-.25A4.33,4.33,0,0,1,36.23,17"/><path class="cls-2" d="M33.08,17.77H33a.48.48,0,0,0,0,.17,13.66,13.66,0,0,1,.26,3.18.24.24,0,0,0,.08.2.6.6,0,0,0,.44.11,3.27,3.27,0,0,0,1.14-.51.88.88,0,0,0,.46-.81A6.5,6.5,0,0,0,34,16.6c-.07-.07-.1-.08-.13-.08h0a.38.38,0,0,0,0,.23c1,1.74,1.19,2.81.78,3.51a1.05,1.05,0,0,1-.61.33c-.14,0-.33-.08-.39-.45a7.68,7.68,0,0,0-.49-2.33Z"/><path class="cls-2" d="M34.36,19.63a1.09,1.09,0,0,0,0-.31,7.17,7.17,0,0,0-1-2.41l0,0,0,.11a15.09,15.09,0,0,1,.7,2.74s.2.24.26-.1"/><path class="cls-2" d="M35.76,18.93c.14.28.3-.09.27-.2-.32-1.09-1.35-2.72-1.59-2.61a12.82,12.82,0,0,1,1.32,2.81"/><path class="cls-2" d="M30.91,21.08l.17-1.33a.21.21,0,0,0-.06-.21s-.09.05-.15.17c-.2.43-.7,1.83-.41,2.34a.3.3,0,0,0,.26.16,2.62,2.62,0,0,0,.38,0,1.5,1.5,0,0,0,1.13-.42c.57-.62.48-1.87.4-3v-.22c-.06-.21-.13-.3-.19-.3l-.11.06a.38.38,0,0,0-.09.31A5.4,5.4,0,0,1,32,21.06a.89.89,0,0,1-.66.5c-.18,0-.37-.12-.39-.48"/><path class="cls-2" d="M31.72,20.51a8.11,8.11,0,0,0,0-1.4c0-.09,0-.09-.07-.09a.17.17,0,0,0-.14.15,6.81,6.81,0,0,1-.16,1.34.24.24,0,0,0,0,.19l.1,0a.25.25,0,0,0,.24-.23"/><path class="cls-2" d="M31.08,16.63a.19.19,0,0,0,.15,0l.05-.08a.21.21,0,0,0-.12-.26,15.88,15.88,0,0,0-1.63-.67.08.08,0,0,0-.09,0,.16.16,0,0,0,.08.16,12.53,12.53,0,0,1,1.56.77"/><path class="cls-2" d="M28,22.19a1,1,0,0,0,.72.23,1.13,1.13,0,0,0,1.1-.77l.36-1.53a.21.21,0,0,0,0-.18l-.12,0c-.15,0-.34.14-.4.44a3.68,3.68,0,0,1-.48,1.38.35.35,0,0,1-.29.18.24.24,0,0,1-.19-.4,1.89,1.89,0,0,0,.34-.73.17.17,0,0,0,0-.17l-.07,0a.33.33,0,0,0-.17.1,5.62,5.62,0,0,1-.72,1c-.13.21-.14.35,0,.47"/><path class="cls-2" d="M23.94,20.65a.83.83,0,0,0-.35-.09c-.13,0-.22.05-.25.11s0,.13.07.16A3.05,3.05,0,0,1,24.61,25a.3.3,0,0,0,0,.21l0,0a.58.58,0,0,0,.27-.14c1-1.6.68-3.05-1-4.42"/><path class="cls-2" d="M10.17,27.65c0,.13.07.21.17.26l.1,0a.32.32,0,0,0,.26-.17.32.32,0,0,0,0-.33c-.31-.53-.08-.77.18-1.06h0a2.32,2.32,0,0,0,.24-.28.36.36,0,0,0,.1-.3.24.24,0,0,0-.25-.21.51.51,0,0,0-.27.09,4.24,4.24,0,0,1-.56.45l-.09.06-.1.07-.12.07c-.07,0-.2.13-.07.43a4.68,4.68,0,0,1,.39.91"/><path class="cls-2" d="M11.34,28.15a.48.48,0,0,0,.34.23.21.21,0,0,0,.15-.09.59.59,0,0,0,0-.5c-.31-.72,0-1,.41-1.33l.06,0a.35.35,0,0,0,0-.31.27.27,0,0,0-.24-.12.39.39,0,0,0-.2.06c-.82.5-.95,1-.59,2.1"/><path class="cls-2" d="M12.32,27.51l.16,1a.34.34,0,0,0,.32.23.25.25,0,0,0,.21-.1.45.45,0,0,0,0-.33,1,1,0,0,1,.09-1.13l.35-.33a.35.35,0,0,0,0-.33.32.32,0,0,0-.27-.15l-.15,0-.46.4a.66.66,0,0,0-.33.73"/><path class="cls-2" d="M22.65,21.26a.42.42,0,0,0-.21-.06.33.33,0,0,0-.31.21.59.59,0,0,0,.14.6,2.92,2.92,0,0,1,1.22,1.53,1.9,1.9,0,0,1-.43,1.63L20,28c-2,1.94-2.31,3.7-.87,5.36l.11,0a.56.56,0,0,0-.07-.23c-1.1-2.27.37-3.54,2.24-5.15l0,0a20.55,20.55,0,0,0,2.71-2.67c.7-1.41.2-2.75-1.5-4.07"/><path class="cls-2" d="M23.84,32.77a10.9,10.9,0,0,0-1.39.11l-.14,0a7.73,7.73,0,0,1-.88.09c-.82,0-1.41-.29-1.75-1.8,0-.21-.05-.28-.12-.33a.38.38,0,0,0-.18.35c0,2,1.35,2,3.24,2.06.56,0,1.17,0,1.82.11a2.51,2.51,0,0,1,1.89,1.73,2.21,2.21,0,0,1-.94,2.21c-.18.16-.25.32-.2.43a.47.47,0,0,0,.45.23.61.61,0,0,0,.28-.08A2.77,2.77,0,0,0,27,35.05a3.05,3.05,0,0,0-2.58-2.27,5.66,5.66,0,0,0-.58,0"/><path class="cls-2" d="M20.41,25.34a6,6,0,0,0-3.5,6.44,4.21,4.21,0,0,0,3.81,3.56H24.1a.59.59,0,0,1,.52.29c.07.14.1.37-.13.73a.41.41,0,0,0-.08.27l.09,0a.5.5,0,0,0,.29-.13,1.19,1.19,0,0,0,.41-1.3,1.07,1.07,0,0,0-1-.65l-1.55,0a5.58,5.58,0,0,1-2.78-.35A3.83,3.83,0,0,1,17.6,31a6,6,0,0,1,3.22-5.13c.95-.6,2.08-1.37,2.27-1.93a.58.58,0,0,0,0-.43l-.07,0a.38.38,0,0,0-.2.1,7.35,7.35,0,0,1-2.43,1.82"/><path class="cls-2" d="M14.58,32.07a1.58,1.58,0,0,0,.36,1.74,15.28,15.28,0,0,0,1.82,1.3,2.71,2.71,0,0,1,1,2.06v0c0,.19.06.39.1.58A1.53,1.53,0,0,0,19.28,39h.1c.16,0,.26-.1.27-.18s-.09-.17-.15-.19c-.72-.26-1-.57-1.1-1a5.6,5.6,0,0,0-1.06-2.69,13.12,13.12,0,0,1-1.82-1.32.78.78,0,0,1-.39-.46c-.19-.55.06-1.47.74-2.83A2.94,2.94,0,0,0,14.16,27L14,27c-.1,0-.12,0-.12.05a.27.27,0,0,0,.11.28c1.26,1,2,1.87.61,4.74"/><path class="cls-2" d="M15.1,35.82A2.43,2.43,0,0,1,16.33,38c.17,2.21,1.28,3.32,3.3,3.28h0a2,2,0,0,0,.9-.24.14.14,0,0,0,.09-.1c0-.08-.05-.23-.21-.4a.58.58,0,0,0-.48-.22,1,1,0,0,0-.27,0h0a1.79,1.79,0,0,1-.54.11,1.72,1.72,0,0,1-.46-.07,2.33,2.33,0,0,1-1.76-2.23,2.65,2.65,0,0,0-1-2.52,5.66,5.66,0,0,1-2.05-1.81A2.5,2.5,0,0,1,14,31.26q.12-.23.24-.51a2.39,2.39,0,0,0,.21-1.09c0-1.11-.29-1.72-.87-1.88h-.11c-.06,0-.17,0-.2.08s0,.21.21.42c.73.59.71,1.6,0,3.27A2.62,2.62,0,0,0,13.23,34a6.86,6.86,0,0,0,1.87,1.79"/><path class="cls-2" d="M21.62,41l.19,0s.05-.05,0-.13a1.5,1.5,0,0,0-.58-.14c-.07,0-.07,0-.07,0a.46.46,0,0,0,.43.26"/><path class="cls-2" d="M22.86,40.79a.3.3,0,0,0-.07-.16,1.25,1.25,0,0,0-.72-.22H22c-.07,0-.09.07-.09.08s0,.06.07.13a1,1,0,0,0,.71.24h.1Z"/><path class="cls-2" d="M23,40l-.18.06,0,.09a.76.76,0,0,0,.74.41l.29,0,.07,0a.21.21,0,0,0-.05-.12A1.14,1.14,0,0,0,23,40"/><path class="cls-2" d="M23.45,38a.76.76,0,0,0,.4-.17l.32-.28a.16.16,0,0,0,0-.25.76.76,0,0,1-.18-.94.23.23,0,0,0,0-.23s0,0-.09,0h-.05a.73.73,0,0,0-.31.18h0A1.19,1.19,0,0,0,23,37.61c.05.28.18.39.42.39Z"/><path class="cls-2" d="M21,40.28a.17.17,0,0,0,.12,0v0a1.18,1.18,0,0,1-.4-1,2.16,2.16,0,0,0-.45-1.31,1.19,1.19,0,0,0-.1.16.54.54,0,0,0,0,.47.94.94,0,0,1,.17.78c-.07.6.15.91.68,1"/><path class="cls-2" d="M21.79,40l.13,0c.18-.08.19-.13.19-.13s0,0-.1-.09a1,1,0,0,1-.5-1.18.92.92,0,0,0-.14-.88.85.85,0,0,1-.18-.82l0,0-.2,0a.58.58,0,0,0-.29.35,1.39,1.39,0,0,0,.24.9.79.79,0,0,1,.19.72,1.28,1.28,0,0,0,.31,1,.46.46,0,0,0,.38.18"/><path class="cls-2" d="M23,36.24c.09-.1.09-.14.09-.14L23,36.05a1.76,1.76,0,0,0-.33,0,1.1,1.1,0,0,0-.92.43.9.9,0,0,0,.06.89.77.77,0,0,1,.09.81,1,1,0,0,0,.78,1.35c.17,0,.22,0,.22,0l0-.07a.45.45,0,0,1,0-.67.26.26,0,0,0,.11-.16.42.42,0,0,0-.15-.26,1.36,1.36,0,0,1,.18-2"/><path class="cls-2" d="M26.36,40a1.93,1.93,0,0,1,.86-.58,3,3,0,0,0,1-.74,1.65,1.65,0,0,0-.43-2.11.37.37,0,0,0-.18-.07.29.29,0,0,0-.22.13.49.49,0,0,0-.05.39l.33.56a.7.7,0,0,1-.34,1,5.79,5.79,0,0,0-1.57,1.07.52.52,0,0,1-.41.26.5.5,0,0,1-.34-.13l-.57-.49a.38.38,0,0,1-.08-.37.27.27,0,0,1,.25-.14.55.55,0,0,1,.18,0l.4.18.13.05s.07,0,.1-.12a.83.83,0,0,0-.54-.84,1.35,1.35,0,0,0-.33,0,1.44,1.44,0,0,0-1.13.75c-.3.45.33.9,1,1.37l.58.44a.72.72,0,0,0,.38.11.63.63,0,0,0,.28-.08,2.09,2.09,0,0,0,.74-.6"/><path class="cls-2" d="M28.06,40.77a.36.36,0,0,1,.14,0,4.18,4.18,0,0,1,1.47.54c.13,0,.24,0,.26-.08s0-.13-.12-.18a4.43,4.43,0,0,0-2.24-.73,1.91,1.91,0,0,0-.64.1c-.23.11-.39.29-.39.45a.27.27,0,0,0,.18.26l1.42.39,1,.42h.09a.24.24,0,0,0,.21-.1l-.07-.15a4.18,4.18,0,0,0-1.24-.57c-.3-.08-.3-.2-.3-.24s0-.13.25-.13"/><path class="cls-2" d="M28.88,38.83a1.65,1.65,0,0,0-.49.5.58.58,0,0,0,0,.53c.25.52,1.27.79,1.75.9h.08c.14,0,.24-.05.26-.12l-.06-.14h0a3.49,3.49,0,0,1-1.29-.81.5.5,0,0,1-.05-.49.53.53,0,0,1,.47-.21,2.2,2.2,0,0,1,.66.12h0l.11-.06s0-.13,0-.2a1.06,1.06,0,0,0-.51-.27,1.13,1.13,0,0,0-.89.23"/><path class="cls-2" d="M29.77,39.38h0a.16.16,0,0,0-.17.1.21.21,0,0,0,.06.22,5.32,5.32,0,0,0,1.34.59H31a.13.13,0,0,0,.13-.11A.2.2,0,0,0,31,40a5.6,5.6,0,0,0-1.27-.59"/><path class="cls-2" d="M30,43.05h0a1.88,1.88,0,0,0,.55-.07,5.69,5.69,0,0,1,2-.44c.15,0,.25-.08.25-.18s-.07-.19-.24-.22a1.37,1.37,0,0,0-.28,0,7.62,7.62,0,0,0-1.81.38H30.4a.2.2,0,0,1-.2-.09.44.44,0,0,1,.12-.41,4.15,4.15,0,0,1,1.94-1.17.23.23,0,0,0,.17-.26.24.24,0,0,0-.26-.17A4,4,0,0,0,29.66,42a.78.78,0,0,0-.12.74.59.59,0,0,0,.49.27"/><path class="cls-2" d="M31.36,41.57c-.06.09-.09.16-.07.19s.17.11.36.11a1.48,1.48,0,0,0,.89-.28l.07-.11v0s-.14-.11-.44-.1a1.44,1.44,0,0,0-.81.21"/><path class="cls-2" d="M29.34,37.48c-.1-.13-.13-.24-.08-.33a.31.31,0,0,1,.3-.15h.08l0-.08a1.47,1.47,0,0,0-1-.55c-.11,0-.13,0-.14.1-.05.76.39,1.31,1.32,1.67H30l0-.06Z"/><path class="cls-2" d="M28.19,33.86l0,.08a2.48,2.48,0,0,0,.6,1.88,1.08,1.08,0,0,0,.72.4.27.27,0,0,0,.17-.07.54.54,0,0,0,0-.43.78.78,0,0,0-.4-.38.21.21,0,0,1-.18.12c-.22,0-.45-.35-.45-.74a.73.73,0,0,0-.45-.86"/><path class="cls-2" d="M30.45,36.54a.63.63,0,0,0-.33-.24h0l0,0v.11c.22,1.31.58,2.75,1.69,3.49a.56.56,0,0,0,.3.08c.3,0,.41-.32.43-.42a2.15,2.15,0,0,0-.2-1.3.32.32,0,0,0-.24-.13.1.1,0,0,0-.11.11l0,.67a.27.27,0,0,1-.08.23l-.1.06h0a.35.35,0,0,1-.25-.12,3.17,3.17,0,0,1-.9-2.18.57.57,0,0,0-.16-.39"/><path class="cls-2" d="M34,43.05a.83.83,0,0,0,.41.09.49.49,0,0,0,.38-.17,2.21,2.21,0,0,0,.14-1.51h0a1.12,1.12,0,0,0-.28-.39h-.06a.44.44,0,0,0-.06.16l0,.87c0,.24-.08.36-.21.37a.48.48,0,0,1-.27-.12,5.53,5.53,0,0,1-.65-2.8c0-.35-.21-.56-.33-.56s-.1.1-.1.26c0,1.41.11,3,1,3.79Z"/><path class="cls-2" d="M34,41.45l.05,0a.55.55,0,0,0,.06-.34l-.1-.7c-.06-.11-.13-.18-.21-.18s-.11.1-.13.15a1.29,1.29,0,0,0,.18,1,.25.25,0,0,0,.15.1"/><path class="cls-2" d="M31.5,38.35c.08,0,.1-.19.11-.22a.84.84,0,0,0-.18-.51c-.07-.09-.11-.09-.13-.09l-.11.09a.71.71,0,0,0,.1.57c.07.11.15.16.21.16"/><path class="cls-2" d="M36.85,13.81h-.1c-.1,0-.13.08-.13.1s.06.16.32.16a1.13,1.13,0,0,1,1.26.72.4.4,0,0,1,0,.39c-.08.12-.14.16-.36.16h0l0,.13a.62.62,0,0,0,.34.11.47.47,0,0,0,.38-.18.59.59,0,0,0,.05-.53,1.62,1.62,0,0,0-1.74-1.06"/><path class="cls-2" d="M37.64,15c.07,0,.1-.08.1-.14s-.1-.34-.39-.37c-.07,0-.09,0-.09.06s0,.11.14.32c.07.05.15.13.24.13"/><path class="cls-2" d="M38,16.17a.16.16,0,0,0-.16.13.25.25,0,0,0,.12.18c.69,0,.94.42.94,1.29-.09.42-.27.39-.42.39a.67.67,0,0,1-.39-.1.19.19,0,0,0-.22.08.13.13,0,0,0,0,.12,1.28,1.28,0,0,0,.94.36.4.4,0,0,0,.27-.07c.27-.2.34-.58.21-1.19A1.23,1.23,0,0,0,38,16.17"/><path class="cls-2" d="M38.33,17.6s.08,0,.14-.09c0-.27,0-.39-.11-.44a.55.55,0,0,0-.26,0c-.13.06-.2.1-.22.15s0,.15.08.24a.73.73,0,0,0,.37.18"/><path class="cls-2" d="M38.47,21.88l.11,0a2.51,2.51,0,0,0,1.15-1.6,1.12,1.12,0,0,0-.16-.83,1.43,1.43,0,0,0-1-.36l-.13,0a.4.4,0,0,0-.38.22.18.18,0,0,0,.07.2l.62.13a.6.6,0,0,1,.37.3,1.21,1.21,0,0,1-.19.86c-.44.57-.67.59-.58.95,0,.17.09.17.12.17"/><path class="cls-2" d="M38.2,20.52l.23,0c.25,0,.27-.09.27-.16,0-.36-.2-.36-.26-.36a.88.88,0,0,0-.29.06.27.27,0,0,0-.17.21c0,.09.09.17.22.23"/><path class="cls-2" d="M40,12.52h0l-.1,0A2.4,2.4,0,0,0,41.2,13c.21,0,.28-.06.3-.09a.2.2,0,0,0,0-.17A4.83,4.83,0,0,0,37,10.38c-.22,0-.46,0-.7,0-.09,0-.15,0-.15.06s.29.33.62.33.49,0,.75,0a3.29,3.29,0,0,1,2.79,1.09c.16.19.2.34.14.46s-.23.2-.5.2"/><path class="cls-2" d="M38.88,11.55c-.16,0-.33,0-.46,0s-.08,0-.08.06,0,.09.17.17a1.66,1.66,0,0,0,.62.1,1.09,1.09,0,0,0,.33-.05c.09-.06.1-.09.1-.1s0,0-.17-.14a1.39,1.39,0,0,0-.51-.07"/><path class="cls-2" d="M42.87,12a.79.79,0,0,1-.43-.19,3.05,3.05,0,0,0-1.49-1h-.18l0,0a5.56,5.56,0,0,0,2.81,1.93l.28,0c.09,0,.15,0,.18-.06a.22.22,0,0,0,0-.15,1.32,1.32,0,0,0-1-1.25.58.58,0,0,1,0,.53.28.28,0,0,1-.24.13"/><path class="cls-2" d="M44.87,55.13a.66.66,0,0,0,.25-.05l.1-.07a.43.43,0,0,1-.27-.32.9.9,0,0,1,.33-.79c1.6-.84,2.1-1.59,1.88-2.85a.18.18,0,0,0,0-.16.44.44,0,0,0-.32-.11.48.48,0,0,0-.45.29,2.75,2.75,0,0,1-.88,1.76A9.58,9.58,0,0,1,41,54.19a1.5,1.5,0,0,0-1.49.88l-.56,1.41a.64.64,0,0,1-.64.57l-1.38-.13a.48.48,0,0,1-.37-.16.44.44,0,0,1-.09-.34A11.07,11.07,0,0,1,36.91,53a1.24,1.24,0,0,0-.11-1,.25.25,0,0,0-.14-.13s-.09,0-.18.23a10.76,10.76,0,0,0-.78,4.71c0,.43.1.68.48.77l2.87.22c.42,0,.61-.17.62-.52.15-1.47.63-2.22,1.43-2.25l2.29-.36.17,0c.33,0,.48.11.54.22a1.49,1.49,0,0,0,.77.26"/><path class="cls-2" d="M43.31,50.21h-.13c-.4.1-.52.35-.49.54s.15.36.34.35a.35.35,0,0,0,.22-.08,2.54,2.54,0,0,1,.92-.63,2.13,2.13,0,0,0-.86-.19"/><path class="cls-2" d="M42.68,52.94a.55.55,0,0,0,.19,0,2.07,2.07,0,0,0,.82-.51,3.78,3.78,0,0,1-1.13-.21h-.11a.3.3,0,0,0-.31.32.4.4,0,0,0,.14.29.47.47,0,0,0,.4.14"/><path class="cls-2" d="M41.52,50.79a2.46,2.46,0,0,1,.68-.89H42a2,2,0,0,0-.79.16c-.27.16-.39.37-.32.59a.44.44,0,0,0,.4.32.33.33,0,0,0,.28-.17"/><path class="cls-2" d="M38,55.38a.28.28,0,0,0,.28-.24,2.54,2.54,0,0,1,.36-1.06,2,2,0,0,0-.88.42.54.54,0,0,0-.14.63.43.43,0,0,0,.38.25"/><path class="cls-2" d="M50.27,54.29a2.51,2.51,0,0,1,1.32-.42,2.43,2.43,0,0,0-1.27-.61c-1.13,0-.83,1.36,0,1"/><path class="cls-2" d="M51.82,52.45a2.75,2.75,0,0,1,.26-1.08,1.57,1.57,0,0,0-.84.45.56.56,0,0,0-.13.62.44.44,0,0,0,.41.27.3.3,0,0,0,.3-.26"/><path class="cls-2" d="M53.91,51.89l-.25,0a1.9,1.9,0,0,0-.78.17.56.56,0,0,0-.31.62A.45.45,0,0,0,53,53a.36.36,0,0,0,.28-.17,2.33,2.33,0,0,1,.66-.92"/><path class="cls-2" d="M52.6,54.3a.71.71,0,0,0,.21,0,2.06,2.06,0,0,0,.84-.52,3.67,3.67,0,0,1-1.18-.22h-.11a.31.31,0,0,0-.32.32.47.47,0,0,0,.14.31.59.59,0,0,0,.42.14"/><path class="cls-2" d="M39.92,52.7a.45.45,0,0,0,.41.29.62.62,0,0,0,.47-.3,2.05,2.05,0,0,0,.25-.93,3.59,3.59,0,0,1-1,.57.31.31,0,0,0-.17.37"/><path class="cls-2" d="M34.68,50a2.19,2.19,0,0,0-1.17.65,2.38,2.38,0,0,1,1.33.37c.79.29.95-1.06-.16-1"/><path class="cls-2" d="M31.88,49.08a.37.37,0,0,0,.33-.29.6.6,0,0,0-.35-.62,1.73,1.73,0,0,0-.72-.12h-.27a2.51,2.51,0,0,1,.72.85.36.36,0,0,0,.29.17"/><path class="cls-2" d="M30.24,49c0-.22-.14-.48-.58-.53a1.9,1.9,0,0,0-.91.27,2.53,2.53,0,0,1,1,.52.4.4,0,0,0,.22.07.33.33,0,0,0,.29-.33"/><path class="cls-2" d="M30.67,50.41a2.31,2.31,0,0,1-1.27.37,2.49,2.49,0,0,0,1.21.61c1.09,0,.81-1.28.06-1"/><path class="cls-2" d="M32.16,50.45a1,1,0,0,0,.34.08.39.39,0,0,0,.41-.39.33.33,0,0,0-.36-.34,2.22,2.22,0,0,1-.43,0,2.83,2.83,0,0,1-.66-.08,2.09,2.09,0,0,0,.7.69"/><path class="cls-2" d="M24.68,48.78a.73.73,0,0,0,.39.12.38.38,0,0,0,.38-.37c0-.1,0-.34-.4-.36a2.47,2.47,0,0,1-1-.18,2,2,0,0,0,.59.79"/><path class="cls-2" d="M22,49a.68.68,0,0,0,.35.09.37.37,0,0,0,.38-.38.31.31,0,0,0-.32-.35h-.22a2.43,2.43,0,0,1-.82-.13A2.09,2.09,0,0,0,22,49"/><path class="cls-2" d="M20.79,46.6l-.2,0a2.19,2.19,0,0,0-.77.2,2,2,0,0,1,.61.44h0c.06.06.17.15.23.15a.46.46,0,0,0,.19,0,.4.4,0,0,0,.39-.34c0-.21-.15-.39-.46-.48"/><path class="cls-2" d="M15.91,43.5v0a.44.44,0,0,0,.42.37.28.28,0,0,0,.24-.13.59.59,0,0,0,0-.55,1.89,1.89,0,0,0-.67-.73,2.29,2.29,0,0,1,0,.75.57.57,0,0,0,0,.27"/><path class="cls-2" d="M15,42.52a2,2,0,0,0-.67-.72,2.14,2.14,0,0,1,0,.74.9.9,0,0,0,0,.28v0a.4.4,0,0,0,.41.35.3.3,0,0,0,.25-.12.61.61,0,0,0,0-.55"/><path class="cls-2" d="M14.81,43.89l-.14,0a2.36,2.36,0,0,1-.89-.31,1.77,1.77,0,0,0,.58,1,.6.6,0,0,0,.33.1.37.37,0,0,0,.37-.31.37.37,0,0,0-.25-.42"/><path class="cls-2" d="M16.29,45.77a.59.59,0,0,0,.37.14.37.37,0,0,0,.36-.29.39.39,0,0,0-.23-.43l-.13,0a2.57,2.57,0,0,1-.86-.39,1.89,1.89,0,0,0,.49,1"/><path class="cls-2" d="M36.33,48.7a.42.42,0,0,0,.06-.28,4.65,4.65,0,0,1,0-.94c0-.07,0-.21-.35-.27h-.2a1.33,1.33,0,0,0-1.31,1A1.39,1.39,0,0,0,35,49.76a.61.61,0,0,0,.2.08h0a.57.57,0,0,0,0-.34A.53.53,0,0,1,35.3,49c.14-.19.42-.27.9-.27Z"/><path class="cls-2" d="M38.05,52.35h0c.12,0,.21,0,.24-.08v-.06c-.3-.24-.43-.43-.43-.64s.19-.41.43-.6.19-.36.07-.5a2.63,2.63,0,0,1-.61-.71.3.3,0,0,0-.25-.15.66.66,0,0,0-.35.15,1.36,1.36,0,0,0-.48,1.58,1.43,1.43,0,0,0,1.35,1"/><path class="cls-2" d="M47.7,52.09l0,0a1.19,1.19,0,0,0,.44.09,1.24,1.24,0,0,0,1.13-1,1.53,1.53,0,0,0-.67-1.73.44.44,0,0,0-.28-.11.37.37,0,0,0-.23.12,5.51,5.51,0,0,1-.61.75c0,.12-.08.2,0,.28a.35.35,0,0,0,.2.2.86.86,0,0,1,.47.59,1,1,0,0,1-.43.74"/><path class="cls-2" d="M45.29,50.19a1.06,1.06,0,0,0,.61.23.94.94,0,0,0,.42-.11A2.61,2.61,0,0,0,47.77,49a.93.93,0,0,0-.2-.85,1.22,1.22,0,0,0-1-.48l-.18,0A2,2,0,0,1,45,46.92a1.47,1.47,0,0,0-.63-.48l-.21,0H44v.11a1.79,1.79,0,0,0,.64.92,6.81,6.81,0,0,0,1.2.69c.25.15.36.3.35.47s-.16.32-.46.47a.59.59,0,0,1-.22.05c-.22,0-.41-.15-.59-.46a8.52,8.52,0,0,0-1.37-1.62L43.44,47a.4.4,0,0,0-.16.06,1,1,0,0,0-.44.39.39.39,0,0,1-.3.2.5.5,0,0,1-.27-.11.71.71,0,0,0-.16,0,8.47,8.47,0,0,0-2,1.59.66.66,0,0,1-.35.17h0l-.13,0,0,0v0c-.06-.13,0-.32.2-.47a6.65,6.65,0,0,0,1.58-1.39.28.28,0,0,0,0-.18.36.36,0,0,0-.17-.24,1.2,1.2,0,0,0-.65-.15,2.75,2.75,0,0,0-.72.13,3.53,3.53,0,0,1-.67.07,3.72,3.72,0,0,1-1.14-.16,1.12,1.12,0,0,0-.31,0,.61.61,0,0,0-.55.29,3.56,3.56,0,0,0-.13.39,4.26,4.26,0,0,0,0,1,1.43,1.43,0,0,0,.15.33.23.23,0,0,0,.22.11.87.87,0,0,0,.4-.13,1.09,1.09,0,0,0,.55-1,.51.51,0,0,1,.33-.33A3.88,3.88,0,0,1,40,47.23a1.54,1.54,0,0,1,.39,0c.17,0,.27.1.29.21s-.1.24-.2.31a7.14,7.14,0,0,1-1.71.84c-.39.18-.53.5-.47,1,0,.27.29.58.8,1a.85.85,0,0,0,1.24-.45c0-.17.2-.33.52-.5a6.36,6.36,0,0,0,1.15-1,.35.35,0,0,1,.23-.11c.18,0,.22.18.27.36l.05.17c.1.19.2.27.33.27s.31-.12.5-.36a.4.4,0,0,1,.27-.14l.1,0h0c.08.08.08.2.05.4s0,.16.06.19a.37.37,0,0,1,.22-.08.71.71,0,0,1,.4.15Z"/><path class="cls-2" d="M37.86,43.84a.24.24,0,0,0-.19.08.26.26,0,0,0,0,.21L39,46a.86.86,0,0,0,.65.34.38.38,0,0,0,.29-.13A.64.64,0,0,0,40,45.6c0-.14-.1-.2-.14-.2l-.08.1a.45.45,0,0,1-.29.16.37.37,0,0,1-.3-.17l-1.15-1.58a.26.26,0,0,0-.21-.07"/><path class="cls-2" d="M42,46.87a1,1,0,0,0,.26.05c.13,0,.31-.05.37-.43a2.75,2.75,0,0,0-.19-1.58l-1.07-2.4c-.08-.16-.12-.18-.12-.18s-.07,0-.13.21a1.56,1.56,0,0,0,.27,1.2c.18.27.33.57.5.89l.21.41a.86.86,0,0,1,0,.77.35.35,0,0,1-.31.17.5.5,0,0,1-.4-.19l-1.06-1.55a1.84,1.84,0,0,0-1-.93.59.59,0,0,0-.28-.06h0a.53.53,0,0,0,.07.18,12.15,12.15,0,0,1,.8,1.17l0,0a5.4,5.4,0,0,0,2,2.23"/><path class="cls-2" d="M40.55,43.53v.16l.8,1.42.07,0a.21.21,0,0,0,.17-.1.26.26,0,0,0-.06-.25l-.8-1.24-.08,0Z"/><path class="cls-2" d="M39.37,45.12h.06a.21.21,0,0,0,.16-.12.19.19,0,0,0,0-.21l-.67-1-.08,0-.09,0,0,.15Z"/><path class="cls-2" d="M43.85,45.75a1.09,1.09,0,0,0,.32,0,.18.18,0,0,0,.16-.06.32.32,0,0,0,0-.22,10.37,10.37,0,0,0-.66-2.75,2.34,2.34,0,0,1-.23-.82.18.18,0,0,0-.07-.21l-.14.09a1.13,1.13,0,0,0,0,1l.53,1.39c.08.24.08.4,0,.51l-.09.06h-.06a.38.38,0,0,1-.3-.2,3.35,3.35,0,0,1-.44-1.29c-.15-.57-.31-.64-.46-.69h-.16v0c.3,1.2.69,2.53,1.6,3.09"/><path class="cls-2" d="M41.7,35.1c-.05,0-.15.08-.22.2a.44.44,0,0,0-.06.42,8.66,8.66,0,0,1,1,4.44c0,.5-.29.53-.36.53a.51.51,0,0,1-.41-.26,18.33,18.33,0,0,1-1-2l0,0a17.91,17.91,0,0,0-.76-1.65.38.38,0,0,0-.08-.08s-.06,0-.12.24a1.42,1.42,0,0,0,.17.93c.24.47.47,1,.67,1.42v0a7.7,7.7,0,0,0,1.37,2.4.71.71,0,0,0,.38.14c.18,0,.31-.11.44-.35.58-1-.08-4.7-.92-6.24,0-.11-.08-.11-.1-.11"/><path class="cls-2" d="M41.73,39.4c.06,0,.13,0,.14-.21A4.36,4.36,0,0,0,40.54,36a.24.24,0,0,0-.17,0,.14.14,0,0,0-.13.07.27.27,0,0,0,0,.27,10.89,10.89,0,0,1,1.34,3,.14.14,0,0,0,.11.11"/><path class="cls-2" d="M39.78,42.76a.69.69,0,0,0,.32.08c.13,0,.46-.06.55-.54a8.5,8.5,0,0,0-1.48-4.8.24.24,0,0,0-.21-.1.37.37,0,0,0-.29.14.23.23,0,0,0-.05.22,15.87,15.87,0,0,0,.64,1.54l.05.1a13.21,13.21,0,0,1,.76,1.9.65.65,0,0,1,0,.55.28.28,0,0,1-.23.12.54.54,0,0,1-.37-.18,12.5,12.5,0,0,1-1.57-2.21l-.07-.11a10.11,10.11,0,0,0-.8-1.23.51.51,0,0,0-.31-.21l-.11.07a.54.54,0,0,0,0,.45,14.41,14.41,0,0,0,3.21,4.21"/><path class="cls-2" d="M37,37.23l-.09,0,0,.12A14.8,14.8,0,0,1,39,40.66l.11.09,0,0s0-.11,0-.28A5.41,5.41,0,0,0,37,37.25Z"/><path class="cls-2" d="M37.57,43.18c.31,0,.5-.27.5-.72-.08-1.4-1.19-2.61-2.25-3.79a.4.4,0,0,0-.25-.09l-.08.05,0,.09a19.84,19.84,0,0,1,2,2.84.76.76,0,0,1,0,.69.4.4,0,0,1-.33.18.53.53,0,0,1-.4-.19,33.78,33.78,0,0,0-3.19-3.82.28.28,0,0,0-.19-.09l-.11.08c0,.06,0,.14.08.22a51,51,0,0,1,3.43,4.19,1,1,0,0,0,.7.36"/><path class="cls-2" d="M34.18,37.9l-.06,0a.42.42,0,0,0,0,.37l2.64,3.18.15.07,0,0a.39.39,0,0,0-.08-.22l-2.65-3.36Z"/><path class="cls-2" d="M44.78,13a3.48,3.48,0,0,0,1.56.82.2.2,0,0,0,.16-.06.67.67,0,0,0,.19-.56.94.94,0,0,0-.59-.6h0A.57.57,0,0,1,46,13a.48.48,0,0,1-.82-.3,1.18,1.18,0,0,0-.54-.76h0a1,1,0,0,1,.11.71.35.35,0,0,0,.06.35"/><path class="cls-2" d="M41.41,14.93a1.14,1.14,0,0,1-.37,0H41A.45.45,0,0,0,41,15a1.81,1.81,0,0,0,1.09.45.53.53,0,0,0,.49-.23c.13-.24,0-.66-.26-1.17L42.3,14v-.07c0-.05,0-.16-.47-.57l0,0c0,.11-.15.19-.34.23a2.5,2.5,0,0,1-.42,0l-.53,0-.09,0a.38.38,0,0,0,.28.25c1,0,1.34.33,1.34.63s-.27.43-.62.44"/><path class="cls-2" d="M41.81,16.57c.74.23.94.71.89,1.07a.54.54,0,0,1-.5.5.88.88,0,0,1-.55-.26.63.63,0,0,0,.05.33,1.72,1.72,0,0,0,1.35.95.44.44,0,0,0,.4-.19.77.77,0,0,0,0-.75,4,4,0,0,1-.45-2c0-.13,0-.18-.07-.21a1.22,1.22,0,0,0-.23.1,1,1,0,0,1-.44.11,2,2,0,0,1-.82-.24l-.1.08a.16.16,0,0,0,0,.16Z"/><path class="cls-2" d="M39.24,28a.48.48,0,0,0,0,.46,24.61,24.61,0,0,1,1.38,2.15l.07.11c.35.6.65,1.1.87,1.43.11.11.2.17.27.17s.19-.17.2-.4a10.55,10.55,0,0,0-2.26-5.21l0,.07a.38.38,0,0,0,0,.37A11.94,11.94,0,0,1,41.24,30a.39.39,0,0,1,0,.38l-.07.06,0,0h0c-.11,0-.21-.09-.29-.25A12.47,12.47,0,0,0,39.43,28l-.11-.08Z"/><path class="cls-2" d="M37.84,30.73a.14.14,0,0,0-.13.08.49.49,0,0,0,0,.47,36.86,36.86,0,0,0,1.81,3.5,1.11,1.11,0,0,0,.86.51.87.87,0,0,0,.72-.44,2.29,2.29,0,0,0,0-2.13A21,21,0,0,0,38.91,29a.24.24,0,0,0-.17-.09.15.15,0,0,0-.14.08.5.5,0,0,0,0,.43,20.41,20.41,0,0,1,2.12,3.8,1.09,1.09,0,0,1,0,1,.52.52,0,0,1-.44.26.62.62,0,0,1-.51-.31A22.68,22.68,0,0,1,38,30.85a.26.26,0,0,0-.19-.12"/><path class="cls-2" d="M40,33.25a.29.29,0,0,0,.23-.14.35.35,0,0,0,0-.35l-1.61-2.84c0-.1-.09-.13-.1-.13s0,0-.08.07a.86.86,0,0,0-.06.65l1.52,2.69a.16.16,0,0,0,.13,0"/><path class="cls-2" d="M38.15,37.06a1.1,1.1,0,0,0,.94-.56,1.61,1.61,0,0,0-.1-1.58,19.16,19.16,0,0,1-1.6-3.36c-.07-.19-.18-.29-.3-.29a.31.31,0,0,0-.25.17.25.25,0,0,0,0,.25,30.52,30.52,0,0,0,1.69,3.53.87.87,0,0,1,.08.89.53.53,0,0,1-.47.28.81.81,0,0,1-.63-.34,16.18,16.18,0,0,1-1.35-2l-.11-.2c-.27-.44-.54-.9-.81-1.28a.3.3,0,0,0-.25-.13.32.32,0,0,0-.27.18.27.27,0,0,0,.09.3l2.28,3.53a1.28,1.28,0,0,0,1,.61"/><path class="cls-2" d="M35.82,32.14l1.67,3a.43.43,0,0,0,.31.21l.09-.06s.08-.15-.08-.5L36,31.45c0-.07-.06-.09-.11-.09h-.07l0,.15a.35.35,0,0,1,0,.25.32.32,0,0,0,.06.37"/><path class="cls-2" d="M36.18,37.86a1.3,1.3,0,0,0,.08-1,15,15,0,0,0-2-3.59L34.12,33a.49.49,0,0,0-.4-.17.25.25,0,0,0-.19.06s0,.06.07.14a21.22,21.22,0,0,1,2.1,3.52.53.53,0,0,1,0,.58.42.42,0,0,1-.37.25.52.52,0,0,1-.38-.2,35,35,0,0,1-3-3.76.32.32,0,0,0-.24-.09.25.25,0,0,0-.23.12.34.34,0,0,0,0,.3,26.25,26.25,0,0,0,3.16,4,1.27,1.27,0,0,0,.89.36.75.75,0,0,0,.59-.25"/><path class="cls-2" d="M32.32,32.82a9.35,9.35,0,0,0,2.38,3.37.22.22,0,0,0,.13.06l.06,0a.31.31,0,0,0,0-.26,39.25,39.25,0,0,0-2.37-3.34h-.12a.25.25,0,0,0,0,.2"/><path class="cls-2" d="M33.21,37.86c.13,0,.21,0,.24-.08s0-.14-.06-.39a18,18,0,0,0-2.78-3.77.39.39,0,0,0-.28-.14l-.07,0s0,.07,0,.15c.6.77,1.3,1.67,1.84,2.49a.35.35,0,0,1,.08.36l0,0-.08.08h-.07a.48.48,0,0,1-.29-.12,45.3,45.3,0,0,1-2.88-3.7.23.23,0,0,0-.21-.11.3.3,0,0,0-.26.16.23.23,0,0,0,0,.26l.18.26c1.17,1.75,2.63,3.92,4.45,4.48Z"/><path class="cls-2" d="M37.06,24.19a1.38,1.38,0,0,0-.2.33c-.08.42,0,.52,0,.54h0A.27.27,0,0,0,37,25a2.1,2.1,0,0,0,.82-1.65l-.17-2.78c0-.16-.11-.26-.19-.26l-.14.07a.42.42,0,0,0-.1.34l0,.62c0,.31,0,.62,0,.93s0,.61,0,.9a1.12,1.12,0,0,1-.26,1Z"/><path class="cls-2" d="M34.93,21.65a.29.29,0,0,0-.17.15,8.67,8.67,0,0,0-.45,3.47.78.78,0,0,0,.79.68,1.64,1.64,0,0,0,1.39-1.2,13.07,13.07,0,0,0,.19-3.7c0-.22-.09-.36-.19-.35l-.14.06a.4.4,0,0,0-.09.29A9.18,9.18,0,0,1,36,24.46c-.28.48-.57.75-.81.75s-.35-.07-.39-.53a12.6,12.6,0,0,1,.26-2.83c0-.07,0-.13-.13-.2"/><path class="cls-2" d="M35.61,24.2a7.45,7.45,0,0,0,.13-2.95c0-.14-.08-.2-.1-.2s-.12.08-.14.22l-.13,3c0,.1.07.1.1.1s.12,0,.14-.14"/><path class="cls-2" d="M31.81,25.9a.51.51,0,0,1-.4-.18c-.1-.16-.08-.38,0-.71l.62-2.2a.22.22,0,0,0,0-.19l-.1-.05c-.09,0-.18.1-.24.22a15.52,15.52,0,0,1-.54,1.53c-.15.37-.28.71-.44,1.18a.87.87,0,0,0-.05.57,1.36,1.36,0,0,0,1.12.4h.07c1.11-.14,1.67-.54,1.75-1.23L34,22.34a.39.39,0,0,0-.1-.29L33.78,22c-.08,0-.21.09-.27.33l-.37,2.2c-.15.91-.59,1.36-1.33,1.38"/><path class="cls-2" d="M32.87,22.18a.28.28,0,0,0-.23.21,19.05,19.05,0,0,1-.43,2.4.23.23,0,0,0,0,.17l.1.05c.1,0,.22-.12.29-.29A20.45,20.45,0,0,0,33,22.33c0-.15-.06-.15-.08-.15"/><path class="cls-2" d="M28.66,26a1.55,1.55,0,0,0,.65.15,1.08,1.08,0,0,0,.94-.65l.82-2.32c0-.19,0-.26-.07-.3a.17.17,0,0,0-.09.11,14.18,14.18,0,0,1-1.07,2.32.74.74,0,0,1-.54.32.46.46,0,0,1-.4-.21.57.57,0,0,1,0-.59,13.53,13.53,0,0,0,.89-2,.19.19,0,0,0-.07-.24.22.22,0,0,0-.15.14,15.34,15.34,0,0,1-1.14,2.25.91.91,0,0,0-.16.7.64.64,0,0,0,.36.37"/><path class="cls-2" d="M30.16,22.87a8.06,8.06,0,0,1-.8,1.88.23.23,0,0,0,0,.23l.06,0a.26.26,0,0,0,.18-.1A5.09,5.09,0,0,0,30.41,23a.25.25,0,0,0-.13-.26.15.15,0,0,0-.12.13"/><path class="cls-2" d="M28.84,22.78a.18.18,0,0,0-.09.1,10.87,10.87,0,0,1-.9,1.51.23.23,0,0,0,0,.19l.07,0,.1,0A4.15,4.15,0,0,0,28.93,23a.19.19,0,0,0-.09-.18"/><path class="cls-2" d="M26.75,25.05a1.1,1.1,0,0,0,.76.49.35.35,0,0,0,.26-.16l0-.11L27.38,25a.33.33,0,0,1-.15-.2.62.62,0,0,1,.15-.42,6.19,6.19,0,0,0,.83-1.14.39.39,0,0,0,.05-.33l-.05,0c-.06,0-.11,0-.15.13a18,18,0,0,1-1.17,1.49c-.19.23-.23.4-.14.58"/><path class="cls-2" d="M26.56,26a3.59,3.59,0,0,0-.75,2.9,7.15,7.15,0,0,0,.51,1.34,9.08,9.08,0,0,1,.36.85,3.19,3.19,0,0,1,.21,1.28c0,.05,0,.2.34.2a2.62,2.62,0,0,0,.46-.09,1.11,1.11,0,0,0,.71-.53.86.86,0,0,0,0-.65c-1-2.16-1-3.51-.17-4.65a.27.27,0,0,0,0-.3A.24.24,0,0,0,28,26.2a.34.34,0,0,0-.25.14,2.35,2.35,0,0,0-.68,1.87,5.17,5.17,0,0,0,.31,1.46c.1.35.22.74.31,1.15a.38.38,0,0,1-.05.38.21.21,0,0,1-.2.12c-.09,0-.24,0-.36-.35s-.24-.74-.34-1v0a5.89,5.89,0,0,1-.4-1.5A3.31,3.31,0,0,1,27,26.24v0c.07-.12.09-.22,0-.29a.27.27,0,0,0-.24-.12.35.35,0,0,0-.28.15"/><path class="cls-2" d="M28.48,30a6.21,6.21,0,0,0,1.26,2.67,1.39,1.39,0,0,0,.91.32,1.11,1.11,0,0,0,1.13-.86,1.39,1.39,0,0,0-.13-.77c0-.1-.06-.18-.09-.29a6.85,6.85,0,0,1,0-3.68.24.24,0,0,0,0-.22.31.31,0,0,0-.23-.09.36.36,0,0,0-.32.17,6.5,6.5,0,0,0,0,4,.77.77,0,0,1-.11.66.51.51,0,0,1-.42.22.69.69,0,0,1-.53-.29C28.75,30,28.55,28.44,29.28,27a.38.38,0,0,0,0-.37.25.25,0,0,0-.21-.11.38.38,0,0,0-.29.19A4.21,4.21,0,0,0,28.48,30"/><path class="cls-2" d="M30.41,26.7a.24.24,0,0,0-.18-.09.28.28,0,0,0-.27.2A5,5,0,0,0,30.13,31a.2.2,0,0,0,.16.1l.06,0s.06-.1,0-.32c-.45-1.85-.42-3.08.07-3.82a.21.21,0,0,0,0-.24"/><path class="cls-2" d="M32.61,27.08a.28.28,0,0,0-.16-.06.33.33,0,0,0-.29.24,7.31,7.31,0,0,0,0,3.84,1.51,1.51,0,0,0,1.52,1.16A1.28,1.28,0,0,0,35,31a15.21,15.21,0,0,1-.18-4.19.3.3,0,0,0-.08-.23.34.34,0,0,0-.25-.11.23.23,0,0,0-.22.18A10.83,10.83,0,0,0,34.05,30c0,.07,0,.16,0,.26a1.09,1.09,0,0,1-.08.89.63.63,0,0,1-.42.21.85.85,0,0,1-.67-.45,6.31,6.31,0,0,1-.22-3.62.29.29,0,0,0-.08-.22"/><path class="cls-2" d="M33.56,26.76l-.09,0c-.07,0-.16.05-.19.19a10.65,10.65,0,0,0-.15,3.34.27.27,0,0,0,.25.2c.12,0,.24-.08.27-.29a14.34,14.34,0,0,1-.06-3.29Z"/><path class="cls-2" d="M36.7,25.74a1.1,1.1,0,0,0-.05.65,7,7,0,0,1,.45,2.95.65.65,0,0,1-.6.56.57.57,0,0,1-.54-.39,10.29,10.29,0,0,1-.28-2.8.27.27,0,0,0-.29-.24.25.25,0,0,0-.18.08.27.27,0,0,0-.06.21,7.67,7.67,0,0,0,.62,3.79.84.84,0,0,0,.66.33c.46,0,1-.45,1.29-1.17.28-1,0-2.24-.83-3.91l-.13-.07Z"/><path class="cls-2" d="M36.51,28.88c.06,0,.1-.13.1-.22a23.1,23.1,0,0,1-.32-2.3c0-.18-.12-.23-.15-.22s-.1.05-.1.15a10.34,10.34,0,0,0,.34,2.54Z"/><path class="cls-2" d="M38.38,24.43a.28.28,0,0,0-.05.17,2,2,0,0,0,.21.86v0a2,2,0,0,1,.23.94c-.05.26-.22.29-.29.29a.57.57,0,0,1-.18,0c-.27,0-.44-.55-.48-.77s.14-.25.19-.18.14.19.18.16-.12-.71-.12-.71a.33.33,0,0,0-.25-.07.59.59,0,0,0-.31.13c-.14.06-.22.15-.14.41a4.24,4.24,0,0,0,.93,2,.32.32,0,0,0,.2.08.54.54,0,0,0,.34-.23,2.64,2.64,0,0,0-.36-3,.29.29,0,0,0-.11-.08"/><path class="cls-2" d="M39.58,23.94l-.13,0c-.06,0-.12,0-.13.06s0,.08,0,.14a2.59,2.59,0,0,0,.29.39c.27.31.6.68.21,1.08-.11.07-.12.1,0,.25a.34.34,0,0,0,.3.19.7.7,0,0,0,.31-.1l.52-.66,0-.15s0,0-.09,0c-.32,0-.55-.33-.76-.6a1.59,1.59,0,0,0-.58-.55"/><path class="cls-2" d="M41.11,23.87a.32.32,0,0,1-.23-.08l-.63-.49-.13,0a.19.19,0,0,0-.17.12.2.2,0,0,0,0,.2,5.08,5.08,0,0,0,1,1,.48.48,0,0,0,.32.13.5.5,0,0,0,.27-.1A4.59,4.59,0,0,1,42,24a2.21,2.21,0,0,0,.67-.89c0-.17,0-.23,0-.24s0,0-.19,0a2.18,2.18,0,0,1-1.29-.7l-.12,0a.24.24,0,0,0-.21.14.19.19,0,0,0,0,.2l.63.66a.46.46,0,0,1,0,.48.5.5,0,0,1-.39.26"/><path class="cls-2" d="M42.46,21.38a.62.62,0,0,1-.43-.22c-.05-.07-.09-.1-.12-.1s0,0-.13.09c-.32.28-.25.46-.16.59a1.64,1.64,0,0,0,1,.61.74.74,0,0,0,.58-.41,4.66,4.66,0,0,0,.4-1.53.38.38,0,0,0,0-.26.91.91,0,0,0-.22-.09l0,0-.11,0a6.65,6.65,0,0,1-1.2-.76l0,.06c-.06.25,0,.4.1.5l.59.49a.79.79,0,0,1,.16.82.43.43,0,0,1-.37.27"/><path class="cls-2" d="M54.33,50.43a.65.65,0,0,0,0-.59c0-.14-.11-.17-.41-.2s-.84-.11-.86-.82l0-.22v0l-.12,0a1.18,1.18,0,0,0-.76.72,2.07,2.07,0,0,1-.22.38,1,1,0,0,1-.62.3c-.25,0-.46-.16-.65-.49a1.18,1.18,0,0,0,0-.18,1.85,1.85,0,0,0-.16.2,1.08,1.08,0,0,0-.14.74,1.94,1.94,0,0,1-.26,1.26Q49.26,53,48.21,53a2.07,2.07,0,0,1-.52-.07l-.09,0a.27.27,0,0,0-.25.23.27.27,0,0,0,0,.26,3.09,3.09,0,0,0,1,.17,2.36,2.36,0,0,0,1.81-1c.77-1.09,1.73-2.45,2.82-2.47a1.33,1.33,0,0,1,.69.17l0,0a.62.62,0,0,0,.44.3.22.22,0,0,0,.2-.12"/><path class="cls-2" d="M56.94,53.75a.67.67,0,0,1-.64-.24c-.12-.17-.1-.41.05-.72l0-.1h-.26c-.57.1-.69.3-.72.61a.47.47,0,0,1-.32.57,9.44,9.44,0,0,1-3.94,1.06,10.56,10.56,0,0,1-3-.5c-.59-.17-1.08-.3-1.6-.4-.34,0-.59.11-.63.26a.22.22,0,0,0,.1.22l1.18.42c.16,0,.65.13.68.6s.39.82.74.81l.14,0h0v0a.66.66,0,0,1-.05-.53.27.27,0,0,1,.26-.21.93.93,0,0,1,.24.05,10,10,0,0,0,2.1.19,9.19,9.19,0,0,0,1.32-.1.47.47,0,0,1,.16,0,.36.36,0,0,1,.32.13,1.91,1.91,0,0,0,1.11.46.75.75,0,0,0,.51-.2h0a.7.7,0,0,1-.49-.51c0-.27,0-.34.27-.41a3.08,3.08,0,0,0,1.24-.6.58.58,0,0,1,.47-.18h0c.8,0,1-.24,1-.41v-.19l-.1,0h-.24"/><path class="cls-2" d="M56.31,49.28a1.34,1.34,0,0,0-.84.31c-1.15,1-1.39,1.69-.82,2.45a2.11,2.11,0,0,0,1.07.31,3,3,0,0,0,1.87-.88,1.3,1.3,0,0,0,0-1.38,1.53,1.53,0,0,0-1.32-.81m.82,1.61a1.73,1.73,0,0,1-1.37.72,1.3,1.3,0,0,1-.58-.11.55.55,0,0,1-.23-.43c0-.29.21-.62.67-1a1.35,1.35,0,0,1,.79-.32.79.79,0,0,1,.67.33.87.87,0,0,1,.05.84"/><path class="cls-2" d="M59.74,50.48c0-.24-.14-.26-.23-.26h-.13a3.14,3.14,0,0,0-.72.22.22.22,0,0,0-.18.21.27.27,0,0,0,.14.29,3.4,3.4,0,0,0,.89.23h.09a.17.17,0,0,0,.13,0,.22.22,0,0,0,0-.17,1.07,1.07,0,0,1,0-.5"/><path class="cls-2" d="M59.32,49.33a3.45,3.45,0,0,1-.43-.54c-.08-.09-.14-.13-.16-.13s-.1,0-.2.13a1.7,1.7,0,0,0-.51.61.5.5,0,0,0,0,.4.45.45,0,0,0,.34.15,1.74,1.74,0,0,0,.9-.39c.1-.1.1-.14,0-.23"/><path class="cls-2" d="M57.77,47.9a.41.41,0,0,0-.24-.12s-.09,0-.17.15a1.84,1.84,0,0,0-.23.51.58.58,0,0,0,.06.41c.05.07.15.09.28.09h.18a1.31,1.31,0,0,0,.62-.45l0-.11s0-.1-.12-.16a2.21,2.21,0,0,1-.41-.31"/><path class="cls-2" d="M60.46,47.36c-.22,0-.42.14-.43.3,0,.33-.18.57-.56.72-.13.07-.08.27-.08.28,0,.16.18.34.35.33l.12,0a.82.82,0,0,1,.7-.35,2.31,2.31,0,0,1,.34,0,.35.35,0,0,0,.33-.24.72.72,0,0,0-.21-.75.78.78,0,0,0-.56-.28"/><path class="cls-2" d="M30.61,53.2c0,.19-.13.35-.46.47l.09,0a1.27,1.27,0,0,0,.32,0,1.42,1.42,0,0,0,.78-.31,1.59,1.59,0,0,1,.91-.34,1.9,1.9,0,0,1,.73.15c.29.12.43.25.46.42a.39.39,0,0,1-.13.35h.21a1,1,0,0,0,1-.8c.23-.37.44-.45.93-.63a1.16,1.16,0,0,0,.32-.74.21.21,0,0,0-.1-.25.34.34,0,0,0-.14,0,5.69,5.69,0,0,1-2.68.7A14.27,14.27,0,0,1,27.46,51a1.05,1.05,0,0,1-.61-1.24l.69-2.11a1.7,1.7,0,0,1,1.59-1c1.1,0,2.65.67,4.77,2.09l.1.06,0,0a.56.56,0,0,0-.08-.51l-.78-.62a.83.83,0,0,1-.31-.68c-.07-.69-.35-.88-.65-1l-.07,0a.28.28,0,0,0,0,.11l-.06.55a.32.32,0,0,1-.31.21h-.18a2.43,2.43,0,0,1-1.92-1.1c-.27-.35-.45-.6-.89-.59h-.21l.23.19a.51.51,0,0,1,.15.44c0,.17-.18.28-.45.36a1.33,1.33,0,0,0-.45.08.85.85,0,0,1-.31.09,1,1,0,0,1-.49-.18h0a1.2,1.2,0,0,0-.62-.19,1.25,1.25,0,0,0-.32,0h0l.06,0a1,1,0,0,1,.44,1.29l-.84,2.55a1.8,1.8,0,0,0,.49,1.77c.6.23.89.44.91.68s-.13.34-.42.49l0,0a1.28,1.28,0,0,0,.49.11,1.15,1.15,0,0,0,.72-.32,1,1,0,0,1,.63-.24,1.23,1.23,0,0,1,.42.07c.94.25,1.38.5,1.41.78"/><path class="cls-2" d="M26,47.84a.18.18,0,0,0,.16-.1.24.24,0,0,0,0-.22,3.2,3.2,0,0,0-1.23-1.22l-.15,0a.18.18,0,0,0-.16.1.24.24,0,0,0,.06.24,5.06,5.06,0,0,1,1.21,1.2Z"/><path class="cls-2" d="M17.78,47.83c0,.6,0,1.17-.55,1.26h0l0,0a1.43,1.43,0,0,0,.68.2,1,1,0,0,0,.5-.14A.36.36,0,0,1,18.7,49a.31.31,0,0,1,.19.06l1.68.8c.23.1.34.21.35.34s-.08.26-.29.41a1.23,1.23,0,0,0,.49.1,1.27,1.27,0,0,0,.73-.29.49.49,0,0,1,.34-.12h.16c.29,0,.57,0,.87,0a8,8,0,0,0,2-.26.52.52,0,0,0,.23-.57.2.2,0,0,0-.2-.15l-.12,0a6.65,6.65,0,0,1-1.87.31A7.61,7.61,0,0,1,19,48.31c-.32-.11-.44-.47-.33-1.07a6.17,6.17,0,0,1,1-2.09.45.45,0,0,1,.41-.24h0a2.75,2.75,0,0,0,.48,0c.52,0,.59-.22.59-.39s0-.07,0-.07H21.1l-.16,0A1.44,1.44,0,0,1,20,44a1,1,0,0,0-.59-.33h-.1a.66.66,0,0,1,.19.44.72.72,0,0,1-.26.5,4.84,4.84,0,0,0-1.41,3.18"/><path class="cls-2" d="M24.17,45.93a1.73,1.73,0,0,0-.25-1.45A1.39,1.39,0,0,0,22.81,44a1.1,1.1,0,0,0-.8.31,1.77,1.77,0,0,0-.39,1.39,2.22,2.22,0,0,0,.69,1.57,1.62,1.62,0,0,0,.5.08c.6,0,1.05-.48,1.36-1.41m-2,.5v0a2,2,0,0,1,.06-1.71.8.8,0,0,1,.57-.28.72.72,0,0,1,.57.28,1.16,1.16,0,0,1,.1,1c-.18.62-.42.93-.76.94a.82.82,0,0,1-.53-.23"/><path class="cls-2" d="M24.69,44.12a1.28,1.28,0,0,0,.68-.35.28.28,0,0,0-.1-.4l-.41-.3-.12,0c-.08,0-.16.07-.24.19a.9.9,0,0,0-.2.61c.05.2.15.29.32.29Z"/><path class="cls-2" d="M24,42.61l-.51-.17h-.12l-.11,0a.3.3,0,0,0,0,.22l0,.68c.08.13.16.19.26.19a.61.61,0,0,0,.3-.12,2.92,2.92,0,0,0,.32-.38c.07-.13.1-.23.07-.3s-.1-.1-.21-.14"/><path class="cls-2" d="M22.53,42.49a3.44,3.44,0,0,1-.53.06.18.18,0,0,0-.16.06s0,.1,0,.37.35.65.58.65c.08,0,.17-.08.26-.23a.78.78,0,0,0,.06-.31v-.32c0-.2,0-.26-.13-.31Z"/><path class="cls-2" d="M15.49,46.85a.65.65,0,0,1,.19,0,4.19,4.19,0,0,0,1.15.2,2.18,2.18,0,0,0,.39-.05.25.25,0,0,0,.17-.24c0-.13-.15-.15-.24-.16a6.41,6.41,0,0,1-4.69-3.1,1.19,1.19,0,0,1,.06-1.29,4,4,0,0,1,1.64-1.34,1.29,1.29,0,0,1,.63-.19,1,1,0,0,1,.7.27,8.31,8.31,0,0,1,2.32,3.69c0,.25.14.37.24.37s.21-.1.26-.3L18.16,44a.68.68,0,0,1,0-.6c.49-.65.52-1.13.09-1.55h0c-.16.44-.33.64-.54.65s-.33-.13-.48-.4a6.24,6.24,0,0,0-1.58-1.67c-.26-.16-.37-.34-.31-.52-.12-.75-.37-.8-.71-.86H14.6l0,0c.18.57-.07,1-.73,1.18a4.1,4.1,0,0,0-2.35,2.12c-.11.3-.3.37-.44.37a.87.87,0,0,1-.52-.24v.1a1,1,0,0,0,.63,1,.46.46,0,0,1,.49.36,2.91,2.91,0,0,0,.59.79c.16.15.23.27.19.4s-.22.22-.59.26l0,0a1.22,1.22,0,0,0,1,.35l.17,0a.48.48,0,0,1,.36.15l.72.43c.19.11.28.21.28.34s-.13.3-.42.46h0l0,0a1.13,1.13,0,0,0,.56.19.84.84,0,0,0,.6-.31.35.35,0,0,1,.3-.18"/><path class="cls-2" d="M10.64,38a1.56,1.56,0,0,0,.11,1.27,2.3,2.3,0,0,0,1.52,1.21h.16A.84.84,0,0,0,13.2,40a2,2,0,0,0-.24-1.9,1.66,1.66,0,0,0-1.28-.82,1.27,1.27,0,0,0-1,.71m1-.18c.16,0,.55.06.8.7s.26,1,.11,1.2a.46.46,0,0,1-.43.2H12a1.75,1.75,0,0,1-1-1.4.7.7,0,0,1,.66-.7"/><path class="cls-2" d="M11.87,36.93a.5.5,0,0,0,.33-.21,1.83,1.83,0,0,0,.17-.64.24.24,0,0,0-.17-.3,1.07,1.07,0,0,0-.39-.07,1.67,1.67,0,0,0-.29,0c-.11,0-.15.17-.12.38,0,.47.25.81.47.8"/><path class="cls-2" d="M11,37.05a1.2,1.2,0,0,0,.05-.9A.19.19,0,0,0,11,36a.31.31,0,0,0-.24-.08.81.81,0,0,0-.66.34.26.26,0,0,0,.06.28c.26.45.52.61.68.6a.18.18,0,0,0,.16-.08"/><path class="cls-2" d="M9.75,36.67c-.2,0-.49.33-.55.56s0,.14.05.18a1.13,1.13,0,0,0,.74.35c.15,0,.25-.06.28-.15s-.07-.51-.41-.87Z"/><path class="cls-2" d="M9.55,35a.43.43,0,0,1,.36.43.31.31,0,0,0,.28.23.27.27,0,0,0,.25-.18.38.38,0,0,0-.07-.42.42.42,0,0,1,0-.48.67.67,0,0,0-.1-.53.51.51,0,0,0-.4-.14.82.82,0,0,0-.76.46c-.07.28.21.49.43.63"/><path class="cls-2" d="M25.49,52.78a1.21,1.21,0,0,0-1.11-1.59,1.13,1.13,0,0,0-1,.57,1.27,1.27,0,0,0,.18,1.32,1.15,1.15,0,0,0,.87.43,1.18,1.18,0,0,0,1-.73m-.67,0a.57.57,0,0,1-.38.14.58.58,0,0,1-.55-.32.7.7,0,0,1,.13-.75.53.53,0,0,1,.35-.15.67.67,0,0,1,.58.37.64.64,0,0,1-.13.71"/><path class="cls-2" d="M19,55.24a1.09,1.09,0,0,0-.94.55,1.3,1.3,0,0,0,.17,1.33,1.13,1.13,0,0,0,.86.43h0a1.19,1.19,0,0,0,1-.71,1.09,1.09,0,0,0-.25-1.2,1.07,1.07,0,0,0-.85-.4m.44,1.59a.63.63,0,0,1-.37.14.58.58,0,0,1-.54-.32.67.67,0,0,1,.12-.75.55.55,0,0,1,.35-.15.64.64,0,0,1,.44,1.08"/><path class="cls-2" d="M48.28,59.75a1.18,1.18,0,0,0-1,.58,1.35,1.35,0,0,0,.23,1.39,1.31,1.31,0,0,0,1,.47,1.23,1.23,0,0,0,1.1-.76,1.16,1.16,0,0,0-.3-1.26,1.25,1.25,0,0,0-1-.42m.52,1.68a.62.62,0,0,1-.4.15.67.67,0,0,1-.47-1.14.55.55,0,0,1,.37-.14.7.7,0,0,1,.64.41.66.66,0,0,1-.14.72"/><path class="cls-2" d="M28,56a7.22,7.22,0,0,1-2.34-2.11c-.08-.14-.17-.21-.25-.21a.18.18,0,0,0-.16.1.38.38,0,0,0,0,.36A4.51,4.51,0,0,0,28,56.34c.1,0,.18,0,.19-.09s0-.17-.17-.26"/><path class="cls-2" d="M27.84,60.47a9.88,9.88,0,0,0-2.27-.38.18.18,0,0,0-.17.16.23.23,0,0,0,.19.23,9.83,9.83,0,0,1,2.28.83l.1,0s.05,0,.06-.14l0-.5c-.05-.14-.06-.16-.21-.23"/><path class="cls-2" d="M23.76,59.31A2.57,2.57,0,0,0,22.2,60c-.07.11-.09.19-.07.24a.29.29,0,0,0,.22.06,1.08,1.08,0,0,0,.45-.12,1.84,1.84,0,0,1,1.11-.47h.16c.33,0,.43.22.42.38a.33.33,0,0,1-.31.32.23.23,0,0,1-.19-.08.3.3,0,0,0-.22-.08l-.17,0a3.08,3.08,0,0,0-.75.33l-.07.05-.18.08-.09.07s0,0,.09.1a3.93,3.93,0,0,0,1.18.21,1.12,1.12,0,0,0,1-.47.92.92,0,0,0-.05-.88,1.06,1.06,0,0,0-1-.5"/><path class="cls-2" d="M15.24,50.44c-.08,0-.22.07-.22.15s.26.33.7.41a2.25,2.25,0,0,1,1.49.48c.26.23.21.43.19.49a.36.36,0,0,1-.34.23.31.31,0,0,1-.32-.24c0-.14-.1-.24-.35-.34a3.29,3.29,0,0,0-.91-.24c-.11,0-.21,0-.33-.05H15a.35.35,0,0,0,0,.12c.91,1.17,1.62,1.33,1.95,1.33a.77.77,0,0,0,.71-.41,1,1,0,0,0,0-1,2.66,2.66,0,0,0-2.42-.92"/><path class="cls-2" d="M52.57,57a4.33,4.33,0,0,0-1.75-.39,1.66,1.66,0,0,0-1.15.38,1,1,0,0,0,.88,1.78,3.84,3.84,0,0,0,1.85-.64.34.34,0,0,0,.1-.14s0-.05-.17-.08a1.63,1.63,0,0,1-.36-.07,3.91,3.91,0,0,0-1.06-.12c-.26,0-.38.06-.46.21a.31.31,0,0,1-.25.13.44.44,0,0,1-.41-.33c0-.07,0-.31.36-.47a1.87,1.87,0,0,1,.59-.1,2.86,2.86,0,0,1,1.09.22,1.69,1.69,0,0,0,.38,0c.34,0,.49-.12.51-.18s0-.16-.15-.24"/><path class="cls-2" d="M46.38,58.16a4.49,4.49,0,0,0,2.16-.47c.09-.06.2-.15.17-.26a.35.35,0,0,0-.34-.19.36.36,0,0,0-.21.06,9.56,9.56,0,0,1-2.23.31,13.38,13.38,0,0,1-1.47-.07c-.21,0-.32.12-.33.23s.12.26.46.31c.7.06,1.28.08,1.79.08"/><path class="cls-2" d="M46.48,59.86c-.12-.11-.12-.2-.1-.26s.15-.21.39-.27l2-.61a.15.15,0,0,0,.11-.19c0-.08-.07-.26-.41-.25h0c-1.88.33-2.88.73-3,1.22-.05.28.23.62.8,1a.37.37,0,0,0,.25.06.34.34,0,0,0,.31-.14c0-.08,0-.18-.09-.26Z"/><path class="cls-2" d="M46.28,61l-1.83.45a.27.27,0,0,0-.1.32.34.34,0,0,0,.33.28h.1l1.72-.42a.26.26,0,0,0,.11-.3.38.38,0,0,0-.33-.32"/><path class="cls-2" d="M26,58.36c-.32-1-2.29-1.8-5-2.14-.17,0-.29.09-.3.19s.06.24.26.31a11.36,11.36,0,0,1,4.15,1.47c.22.18.31.31.32.45s-.1.21-.19.29-.17.16-.16.3.1.31.27.31a1.51,1.51,0,0,0,.26,0A1.09,1.09,0,0,0,26,58.36"/><path class="cls-2" d="M21.18,55.32c.08-.39-.4-1.34-2.75-2.43l-.13,0s-.1,0-.12.07a.23.23,0,0,0,.1.25,4.15,4.15,0,0,0,.43.3l.23.17a6.71,6.71,0,0,1,1.35,1.05.35.35,0,0,1,.16.29.26.26,0,0,1-.11.21c-.08.14,0,.18,0,.19a1,1,0,0,0,.52.17c.19,0,.31-.09.34-.25"/><path class="cls-2" d="M21.6,53.94c.35.15.68.31,1,.45a4.25,4.25,0,0,0,1.26.47H24c.36,0,.59-.14.64-.35a.48.48,0,0,0-.27-.52.52.52,0,0,0-.19-.07l0,.06a.41.41,0,0,1-.38.27.91.91,0,0,1-.32-.06,32.58,32.58,0,0,1-4.54-2.25.55.55,0,0,0-.22-.07c-.1,0-.15,0-.17.09l.06.19a20,20,0,0,0,3.06,1.79"/><path class="cls-2" d="M4.79,30.51l0,0c.41.21.66.41.73.61a1.92,1.92,0,0,1,.06.91,3.21,3.21,0,0,1-.13.67s-.1.06-.22,0l-1.83-.24.06-.59c0-.3.12-.4.18-.43a1.33,1.33,0,0,1,.58-.09h.06l0-.27-1.93-.25,0,.28h.05a1.27,1.27,0,0,1,.54.24s.1.16.06.46l-.07.6-1.65-.21c-.12,0-.16,0-.16,0s0,0,0-.11l.1-.84c.06-.42.15-.58.22-.63a1,1,0,0,1,.65-.13h.05l0-.28L1,30.07.54,33.49l.28,0v-.07c.06-.25.13-.34.18-.37a.48.48,0,0,1,.24,0,1.37,1.37,0,0,1,.27,0l3.42.44c.36,0,.46.11.49.14a.76.76,0,0,1,.08.42v0l.27,0,.45-3.45-1.41-.49Z"/><path class="cls-2" d="M5.72,26.88a1.53,1.53,0,0,0-.85,0,3.4,3.4,0,0,0-.91.54l-.54.41a1.62,1.62,0,0,1-.53.32.81.81,0,0,1-.49,0A.64.64,0,0,1,2,27.89a.6.6,0,0,1-.06-.43,1,1,0,0,1,.42-.53,1.71,1.71,0,0,1,1.09-.2h.06l.07-.27-1.77-.3-.06.24.05,0a.56.56,0,0,1,.15.1s0,0,0,.1,0,.05-.2.27a1.43,1.43,0,0,0-.27.49,1.06,1.06,0,0,0,.19,1,1.58,1.58,0,0,0,.9.57,1.39,1.39,0,0,0,.9-.06,2.46,2.46,0,0,0,.48-.28l.53-.41a3.6,3.6,0,0,1,.66-.44,1,1,0,0,1,.64-.05.92.92,0,0,1,.54.34.63.63,0,0,1,.1.51,1,1,0,0,1-.72.7,2.59,2.59,0,0,1-.88.15h0l-.06.26,1.78.26.07-.26-.06,0-.14-.08,0-.09.22-.29a1.66,1.66,0,0,0,.29-.58,1.2,1.2,0,0,0-.18-1.06,1.43,1.43,0,0,0-.93-.64"/><path class="cls-2" d="M7.88,24.21c-.13.26-.22.35-.28.38a.88.88,0,0,1-.5-.1l-3.65-1.4.1-.26c.12-.32.26-.5.39-.55a1.78,1.78,0,0,1,.82,0h0l.11-.26-1.38-.48L2.23,25l1.35.56.1-.27-.05,0A1.54,1.54,0,0,1,3,24.73a.89.89,0,0,1,.08-.67l.1-.27,3.56,1.37a1.44,1.44,0,0,1,.52.29s0,.16,0,.46V26l.26.09.69-1.82-.25-.1Z"/><path class="cls-2" d="M10.1,19.78a.47.47,0,0,1-.24.18,2.25,2.25,0,0,1-.56,0l-4.67-.7-.1.2,2.8,3a7,7,0,0,1,.73.85.41.41,0,0,1,0,.36l0,.06.24.13.64-1.22-.24-.13,0,.06a2,2,0,0,1-.18.21.22.22,0,0,1-.23,0,1.46,1.46,0,0,1-.2-.15c-.09-.08-.3-.3-.65-.66l.72-1.36.72.12.31.07.17.06c.08,0,.12.08.12.11a1.34,1.34,0,0,1-.1.32l0,.06.24.12.81-1.51-.25-.13Zm-2.44.65-.58,1.1L5.73,20.11Z"/><path class="cls-2" d="M11.62,15.61a3.08,3.08,0,0,0-.79-.82,2.46,2.46,0,0,0-2.5-.48,2.82,2.82,0,0,0-1.15,1l-1,1.41.22.16,0,0c.17-.2.28-.24.35-.25a.89.89,0,0,1,.44.23l2.8,2c.28.21.33.32.34.37s0,.17-.13.4l0,.05.22.17,1.06-1.45A3.07,3.07,0,0,0,12,17.25a1.87,1.87,0,0,0,0-.63,2.25,2.25,0,0,0-.39-1m-.19,1.49A1.84,1.84,0,0,1,11,18.24c-.11.15-.17.18-.18.18s-.09,0-.2-.07L7.45,16c-.11-.09-.13-.14-.13-.16a.42.42,0,0,1,.11-.22,1.76,1.76,0,0,1,1.17-.76h.24a2.66,2.66,0,0,1,1.51.58,2.22,2.22,0,0,1,1.08,1.65"/><path class="cls-2" d="M14.17,11.28a3,3,0,0,0-1.89-1,1.82,1.82,0,0,0-1.54.54,1.87,1.87,0,0,0-.52,1.55,3.12,3.12,0,0,0,1,1.88,3.11,3.11,0,0,0,1.84,1l.27,0a1.78,1.78,0,0,0,1.32-.56,1.85,1.85,0,0,0,.52-1.52,3,3,0,0,0-1-1.9m.2,3.13a1,1,0,0,1-1,.24,3.28,3.28,0,0,1-1.53-1,3.35,3.35,0,0,1-1-1.52,1,1,0,0,1,.23-1,.93.93,0,0,1,.72-.28,1.37,1.37,0,0,1,.28,0,3.21,3.21,0,0,1,1.55,1,3.21,3.21,0,0,1,1,1.52,1.08,1.08,0,0,1-.23,1"/><path class="cls-2" d="M17.11,9.48a3.13,3.13,0,0,0-1-.13h-.79a2.15,2.15,0,0,1-.57-.07.76.76,0,0,1-.4-.3.64.64,0,0,1-.16-.47.52.52,0,0,1,.21-.37A.94.94,0,0,1,15.08,8a1.86,1.86,0,0,1,1,.5l.05,0,.22-.17L15.1,7l-.19.16,0,.05A.58.58,0,0,1,15,7.4l-.06.09a1.2,1.2,0,0,1-.32.1,1.35,1.35,0,0,0-.51.23,1.08,1.08,0,0,0-.43.87,1.52,1.52,0,0,0,.37,1,1.39,1.39,0,0,0,.75.5,1.84,1.84,0,0,0,.55.07h.74a3.05,3.05,0,0,1,.72.05,1,1,0,0,1,.55.36.91.91,0,0,1,.21.59.56.56,0,0,1-.23.45,1,1,0,0,1-1,.13,2.5,2.5,0,0,1-.79-.41l0,0-.22.17,1.27,1.28.2-.15,0-.06-.06-.15,0-.09a3,3,0,0,1,.34-.1,1.65,1.65,0,0,0,.58-.28,1.28,1.28,0,0,0,.52-.95A1.57,1.57,0,0,0,17.79,10a1.45,1.45,0,0,0-.68-.51"/><path class="cls-2" d="M22.89,4.06a1.71,1.71,0,0,1-.24-.72A.62.62,0,0,1,23,3L23,3l-.12-.24-1.42.69.11.24h.06a.63.63,0,0,1,.46,0c.07,0,.2.18.42.63l.88,1.83a3.14,3.14,0,0,1,.34,1,.92.92,0,0,1-.6.95.84.84,0,0,1-1-.14,2.5,2.5,0,0,1-.53-.77L20.49,4.88c-.15-.32-.15-.44-.13-.49s.08-.16.32-.3l.05,0-.12-.26-1.71.83.12.25.05,0a.78.78,0,0,1,.43-.07c.05,0,.15.1.3.42L20.86,7.4a3,3,0,0,0,.69,1,1.4,1.4,0,0,0,.91.35,1.93,1.93,0,0,0,.76-.19,1.45,1.45,0,0,0,.93-1.42,3.39,3.39,0,0,0-.38-1.25Z"/><path class="cls-2" d="M27.56,1.66a.67.67,0,0,1,.36-.31l0,0-.08-.26-1.53.48.09.26h.06a.74.74,0,0,1,.41,0c.09.06.22.23.37.71L28,4.76l-3.25-2.7-1.11.35.09.27.07,0a.6.6,0,0,1,.25,0,.59.59,0,0,1,.26.15l.11.09,1,3.24a1.72,1.72,0,0,1,.13.73c0,.11-.16.22-.37.32l-.05,0,.08.26L26.73,7l-.07-.27H26.6a.6.6,0,0,1-.42,0c-.08-.05-.21-.22-.36-.71L25,3.32l3.76,3.11.19-.06-1.25-4a1.63,1.63,0,0,1-.12-.74"/><path class="cls-2" d="M31.4,5.5h-.21a.46.46,0,0,1-.25,0s-.12-.12-.19-.48l-.68-3.39c-.06-.32,0-.45,0-.51s.13-.13.41-.21l.06,0L30.49.58,28.55,1l.05.27h.07a.77.77,0,0,1,.46,0c.05,0,.13.15.19.48L30,5.14c.08.35,0,.47,0,.5s-.14.13-.42.22h-.06l0,.27,1.94-.38-.05-.27Z"/><path class="cls-2" d="M34.41.49A2.75,2.75,0,0,0,32.92.25L31.18.41l0,.27h.05a.6.6,0,0,1,.42.1.89.89,0,0,1,.13.49l.3,3.44c0,.35,0,.46,0,.51a.8.8,0,0,1-.39.16h-.06l0,.27,1.79-.15a2.88,2.88,0,0,0,1.18-.34,1.8,1.8,0,0,0,.49-.4,2.29,2.29,0,0,0,.5-.95,3.35,3.35,0,0,0,.1-1.14A2.45,2.45,0,0,0,34.41.49M33.12,5.1c-.11,0-.15,0-.16,0a.31.31,0,0,1-.07-.19L32.55,1c0-.15,0-.18,0-.2s.07-.05.23-.07H33a1.71,1.71,0,0,1,1.12.39,2.35,2.35,0,0,1,.73,1.7,2.17,2.17,0,0,1-.53,1.89,1.81,1.81,0,0,1-1.12.45Z"/><path class="cls-2" d="M38.59,0a1.81,1.81,0,0,0-1.5.64,3,3,0,0,0-.75,2,3.06,3.06,0,0,0,.5,2,1.8,1.8,0,0,0,1.45.84h.11a1.84,1.84,0,0,0,1.37-.62,3.08,3.08,0,0,0,.77-2A3,3,0,0,0,40,.8,1.85,1.85,0,0,0,38.59,0M39.7,2.81a3.24,3.24,0,0,1-.47,1.77,1,1,0,0,1-.91.49,1,1,0,0,1-.86-.6,3.4,3.4,0,0,1-.28-1.79A3.35,3.35,0,0,1,37.64.93a1.1,1.1,0,0,1,.87-.51h.06a1.09,1.09,0,0,1,.85.58,3.33,3.33,0,0,1,.28,1.81"/><path class="cls-2" d="M44.08.76A.57.57,0,0,1,44,.92l-.06,0h0A1.35,1.35,0,0,1,43.6.76a1.44,1.44,0,0,0-.51-.24,1.1,1.1,0,0,0-.94.25,1.66,1.66,0,0,0-.51,1,1.44,1.44,0,0,0,.12.89,2.4,2.4,0,0,0,.32.46l.44.5a4.51,4.51,0,0,1,.49.62,1,1,0,0,1,.08.65.84.84,0,0,1-.31.56.58.58,0,0,1-.48.13,1,1,0,0,1-.76-.67A3.27,3.27,0,0,1,41.33,4V4l-.26-.05-.13,1.8.25,0,0,0,.07-.15.09,0a1.08,1.08,0,0,1,.3.19,1.54,1.54,0,0,0,.6.25l.27,0a1.25,1.25,0,0,0,.78-.27,1.49,1.49,0,0,0,.57-1,1.51,1.51,0,0,0-.06-.85A3.08,3.08,0,0,0,43.24,3l-.46-.52a1.91,1.91,0,0,1-.35-.5.84.84,0,0,1,0-.5.68.68,0,0,1,.25-.43A.56.56,0,0,1,43.06,1a1,1,0,0,1,.55.38,1.88,1.88,0,0,1,.28,1.07v.06l.27,0L44.34.75l-.24,0Z"/><path class="cls-2" d="M51.6,8.75c-.22-.13-.29-.23-.31-.28A.82.82,0,0,1,51.42,8l1.39-3.16c.13-.29.22-.39.28-.42a.63.63,0,0,1,.41,0l.06,0,.11-.25-1.23-.55L49.7,6.54l.25-4L48.72,2l-.11.25.06,0c.25.13.33.23.34.3a.93.93,0,0,1-.12.49L47.62,6c-.2.44-.32.59-.39.63s-.26.06-.49,0l-.06,0-.11.25L48,7.49l.1-.25,0,0c-.22-.14-.28-.24-.3-.29a1.42,1.42,0,0,1,.2-.78l1.09-2.48-.26,4.17.17.08,3-3.15L50.75,7.58c-.17.38-.26.48-.31.51A.61.61,0,0,1,50,8l-.06,0-.11.26L51.55,9l.1-.26Z"/><path class="cls-2" d="M55.31,9.77l0,0a1.57,1.57,0,0,1-.83.4h0a1.77,1.77,0,0,1-.85-.35A2.35,2.35,0,0,1,53,9.46s0-.14,0-.21l1-1.57.51.35c.26.16.31.27.32.34a1.34,1.34,0,0,1-.17.57l0,.05.24.15,1-1.63-.23-.15,0,0c-.24.28-.37.37-.45.39s-.24,0-.44-.14l-.5-.34L55.2,5.9c0-.1.09-.13.11-.13l.09,0,.72.46c.36.22.47.37.48.46s0,.27-.15.64l0,0,.24.16.65-1.07-2.9-1.84-.15.24.06,0c.2.16.25.27.26.33s0,.19-.19.47L52.54,8.65c-.19.3-.3.36-.34.37a.72.72,0,0,1-.41-.1l0,0-.15.24L54.53,11l1-1.06Z"/><path class="cls-2" d="M58.32,13.73a1.19,1.19,0,0,1-.18-.32,1.32,1.32,0,0,1,0-.5l.46-2.35,1.56-.49A2.18,2.18,0,0,1,61,9.93a.6.6,0,0,1,.33.15l0,.05.18-.22-1.23-1-.18.21,0,.05a1.24,1.24,0,0,1,.2.19.17.17,0,0,1-.05.19l-.09.08a3.19,3.19,0,0,1-.39.14l-1.1.33L59,8.89a1.72,1.72,0,0,1,0-.18.64.64,0,0,1,.11-.22.13.13,0,0,1,.16-.06,1.3,1.3,0,0,1,.27.18l0,0,.19-.21L58.26,7.15l-.18.21,0,0a.62.62,0,0,1,.22.43A5.75,5.75,0,0,1,58.16,9l-.26,1.36-1.66.5a7.35,7.35,0,0,1-.85.23A.65.65,0,0,1,55,11l0,0-.18.2,1.21,1,.18-.21-.05,0a1,1,0,0,1-.19-.24.17.17,0,0,1,0-.2.51.51,0,0,1,.22-.12l.41-.15,1.18-.37c-.15.79-.26,1.28-.31,1.48a1.06,1.06,0,0,1-.14.36l-.13.06a.79.79,0,0,1-.29-.18l-.06,0-.17.22L58.19,14l.17-.21Z"/><path class="cls-2" d="M59.87,14.49l2.5-2.39a.8.8,0,0,1,.43-.28c.06,0,.18,0,.39.23l.05,0,.2-.19-1.37-1.43-.2.19,0,.05c.19.23.22.35.22.41s-.06.18-.3.42l-2.49,2.39c-.26.25-.38.28-.43.28s-.18,0-.4-.23l0,0-.2.19,1.37,1.42.2-.19,0,0c-.18-.23-.23-.35-.23-.41s0-.16.31-.42"/><path class="cls-2" d="M62.91,18.2h0l.08-.31h-.09a3,3,0,0,1-.69-.09,1.46,1.46,0,0,1-.73-.5,1.21,1.21,0,0,1-.19-1.19,2.78,2.78,0,0,1,1-1.33A3.23,3.23,0,0,1,64,14a1.15,1.15,0,0,1,1.11.42,1.1,1.1,0,0,1,.14,1.11,2.89,2.89,0,0,1-.44.75l0,0,.17.21,1.44-1.2-.15-.2,0,0a.29.29,0,0,1-.17,0l-.12-.07a3.73,3.73,0,0,1-.13-.37,2.23,2.23,0,0,0-.34-.65,1.92,1.92,0,0,0-1.6-.76h-.06a3.14,3.14,0,0,0-1.89.73,3.09,3.09,0,0,0-1.14,1.6,1.94,1.94,0,0,0,1.41,2.47,2.67,2.67,0,0,0,.56.06h.24"/><path class="cls-2" d="M64.68,22.39a.59.59,0,0,1-.05-.3,2.84,2.84,0,0,1,.34-.46L68,18l-.11-.19-4,.82a6.35,6.35,0,0,1-1.1.17.43.43,0,0,1-.33-.17l0-.05-.24.14.7,1.19.23-.15,0-.05a1.52,1.52,0,0,1-.09-.26.27.27,0,0,1,.14-.2l.23-.08.9-.2.78,1.32-.49.56a2.23,2.23,0,0,1-.21.22.56.56,0,0,1-.15.11c-.1.06-.13.06-.15,0s-.09-.06-.22-.24l0-.05-.24.13.87,1.49.23-.14Zm2-3.89L65.4,20l-.62-1.07Z"/><path class="cls-2" d="M70.42,24.5c.11,0,.23.13.34.32l0,.06.26-.1-.6-1.49-.26.1,0,.06c.07.26,0,.37,0,.42s-.21.23-.68.42l-2.17.88,2.44-3.45-.43-1.09-.28.11,0,.06a.84.84,0,0,1,.06.26.72.72,0,0,1-.14.27l-.06.11-3.16,1.27a1.64,1.64,0,0,1-.73.18c-.11,0-.23-.13-.34-.34l0-.05-.25.1.59,1.49.25-.11v-.06c-.06-.24,0-.36,0-.41s.21-.23.68-.42l2.59-1L65.78,26l0,0,.09.2,3.85-1.55a1.51,1.51,0,0,1,.73-.18"/><path class="cls-2" d="M68.79,30.46a4.69,4.69,0,0,0,.94-.11,3.1,3.1,0,0,0,1.82-1.1,1.87,1.87,0,0,0,.35-1.6,1.81,1.81,0,0,0-1-1.25,3.18,3.18,0,0,0-2.14-.15A3.24,3.24,0,0,0,67,27.3a1.85,1.85,0,0,0-.39,1.64,1.88,1.88,0,0,0,1,1.25,2.73,2.73,0,0,0,1.22.27m-1.09-.88a1,1,0,0,1-.4-1.73,3.34,3.34,0,0,1,1.63-.78,5.17,5.17,0,0,1,1.13-.15,2,2,0,0,1,.69.1,1.05,1.05,0,0,1,.75.74,1.1,1.1,0,0,1-.31,1,3.36,3.36,0,0,1-1.67.8,3.24,3.24,0,0,1-1.82,0"/><path class="cls-2" d="M72.8,33.06h0a.39.39,0,0,1-.17,0s0,0,0-.09a1.5,1.5,0,0,1,.08-.33,1.26,1.26,0,0,0,.07-.55,1.07,1.07,0,0,0-.52-.83,1.58,1.58,0,0,0-1-.2,1.49,1.49,0,0,0-.81.38,2.05,2.05,0,0,0-.35.44l-.34.58a4.33,4.33,0,0,1-.45.64.93.93,0,0,1-.59.27.85.85,0,0,1-.63-.12.58.58,0,0,1-.27-.43,1,1,0,0,1,.41-.91,2.93,2.93,0,0,1,.76-.47h0l0-.27-1.75.41,0,.26h.06l.17,0,0,.07a1.46,1.46,0,0,1-.08.35,1.45,1.45,0,0,0-.07.64,1.27,1.27,0,0,0,.54.94,1.49,1.49,0,0,0,.88.26h.23a1.55,1.55,0,0,0,.79-.31,3,3,0,0,0,.65-.83l.35-.59a2.39,2.39,0,0,1,.38-.49,1,1,0,0,1,.46-.19.62.62,0,0,1,.48.12.52.52,0,0,1,.22.37,1,1,0,0,1-.2.65,1.87,1.87,0,0,1-.94.58l-.06,0,0,.28,1.76-.37Z"/><path class="cls-2" d="M35.5,69.63a.43.43,0,0,1-.47-.29,4.18,4.18,0,0,1,0-2.22.49.49,0,0,1,.43-.41.5.5,0,0,1,.51.37,7.17,7.17,0,0,1,0,2.12.59.59,0,0,1-.51.43"/><path class="cls-2" d="M37.65,69.54c-.24,0-.5-.08-.51-.34l0-1.81a.82.82,0,0,1,.16-.62.51.51,0,0,1,.34-.17.58.58,0,0,1,.58.64V69a.56.56,0,0,1-.11.4.62.62,0,0,1-.43.19"/><path class="cls-2" d="M31.11,71a1.27,1.27,0,0,1-.27,0,.39.39,0,0,1-.33-.4.37.37,0,0,1,.26-.36.93.93,0,0,1,.23,0,.51.51,0,0,1,.47.16.41.41,0,0,1-.36.66"/><path class="cls-2" d="M41.71,71.11a.41.41,0,0,1-.36-.14.43.43,0,0,1,0-.37.61.61,0,0,1,.51-.42H42a.37.37,0,0,1,.32.32A.6.6,0,0,1,42,71a.83.83,0,0,1-.28.09"/><path class="cls-2" d="M32.21,70.14a.47.47,0,0,1-.2,0l-.47-.33a.18.18,0,0,1,.05-.2,4.51,4.51,0,0,1,2.46-1.15h0a.3.3,0,0,1,.31.29.51.51,0,0,1-.3.56,3,3,0,0,0-1.46.61.56.56,0,0,1-.41.24"/><path class="cls-2" d="M40.7,70.27c-.05,0-.08,0-.14-.09a3.69,3.69,0,0,0-1.67-.89c-.08,0-.16,0-.18-.23,0-.42,0-.55,0-.57a4.31,4.31,0,0,1,2.59,1.13l.07.13-.08.1-.51.36Z"/><path class="cls-2" d="M39.1,74a.45.45,0,0,1-.33-.11,17.35,17.35,0,0,0-1.93-1,.4.4,0,0,1-.18-.46.7.7,0,0,1,.57-.51l.16,0a6.26,6.26,0,0,0,1.08.51,4.37,4.37,0,0,1,1.1.56.41.41,0,0,1,.19.22.28.28,0,0,1-.08.18l-.3.41a.42.42,0,0,1-.28.14"/><path class="cls-2" d="M31.35,73.38l-.12,0c-.06,0-.07-.15-.06-.3.07-1.07,1.07-1.72,2.12-2.41.34-.23.69-.46,1-.7a.91.91,0,0,1,.31-.16.2.2,0,0,1,.16.06l.52.31c.08,0,.13.09.13.13a.26.26,0,0,1-.11.18,8.11,8.11,0,0,1-1.09.75,4.3,4.3,0,0,0-1.68,1.47,1.84,1.84,0,0,1-1.18.71Z"/><path class="cls-2" d="M34.26,73.86a.55.55,0,0,1-.23,0l-.41-.36c-.19-.22-.16-.45.14-.76a9,9,0,0,1,1.35-1.06,9.13,9.13,0,0,0,1.44-1.14.78.78,0,0,1,.53-.34h.13l.35,0c.17,0,.37,0,.41,0s-.16.45-.23.57A6.69,6.69,0,0,1,36,72.25a4.19,4.19,0,0,0-1.47,1.36c-.07.22-.18.25-.25.25"/><path class="cls-2" d="M41.63,73a.92.92,0,0,1-.33,0,1.15,1.15,0,0,1-.64-.39,3,3,0,0,0-.84-.59c-.23-.11-.44-.2-.66-.28a8.45,8.45,0,0,1-.88-.39c-.15-.08-.22-.16-.24-.27s.13-.42.3-.63.15-.16.22-.16a.35.35,0,0,1,.23.08,5.39,5.39,0,0,0,1,.52,4.88,4.88,0,0,1,2.37,1.75.17.17,0,0,1,0,.16.22.22,0,0,1-.12.11,1.87,1.87,0,0,1-.46.09"/><path class="cls-2" d="M27.15,71.69c-.2,0-.34-.06-.39-.16a.33.33,0,0,1,0-.29l.5-.82a.32.32,0,0,0,0-.31.29.29,0,0,0-.21-.08,1,1,0,0,0-.51.3,3.17,3.17,0,0,1-2.08,1.11,2.81,2.81,0,0,1-.58,0c-.21-.06-.33-.15-.37-.26a.53.53,0,0,1,.12-.41l.62-.79c.07-.17.08-.27,0-.34l0,0-.14,0-.19.06-1.51.75a1.55,1.55,0,0,1-.47.12,1,1,0,0,1-.83-.32A.27.27,0,0,1,21,70l.1-.11a2,2,0,0,0,.67-.67c.08-.12.11-.21.07-.29s-.14-.15-.36-.15c-.55.08-1,.14-1.47.17a3.09,3.09,0,0,1-1.78-.15.48.48,0,0,1-.21-.38c0-.15.18-.32.49-.53l1.52-.59q.24-.11.27-.24a.32.32,0,0,0-.13-.3.31.31,0,0,1-.08-.24c0-.08.1-.16.21-.22a1.22,1.22,0,0,1,.57-.2,2.51,2.51,0,0,1,1.68.72c.12.06.2.11.27.1s.13-.19.08-.36l-.18-.6c0-.15-.06-.27,0-.33a.31.31,0,0,1,.26-.12c.8-.06,1.5.36,2.34,1.39a.58.58,0,0,0,.4.23h.05l.1-.09a.49.49,0,0,0-.1-.45l-.27-.6a.52.52,0,0,1,0-.38.56.56,0,0,1,.4-.2,2.1,2.1,0,0,1,.33-.06c.54,0,.87.12,1,.48L28,67.08c.13.19.27.29.41.28s.31-.14.47-.38.18-.27.26-.27c.24,0,.64.22,1.19.73a.91.91,0,0,0,.74.29,1.33,1.33,0,0,0,.46-.14,6,6,0,0,1,1.89-.51,3.19,3.19,0,0,1,.82,0c.21.06.33.21.29.39s-.32.48-.83.53a1,1,0,0,1-.25,0,.77.77,0,0,0-.27,0,5.44,5.44,0,0,0-2.15,1.1,1,1,0,0,1-.68.27.92.92,0,0,0-.38.11c-.22,0-.48.33-.8.72a3.44,3.44,0,0,1-2.05,1.48m.27-2.75c.52,0,.83.1.92.28a.59.59,0,0,1-.1.53c-.12.21-.1.33-.06.4a.23.23,0,0,0,.2.09c.24,0,.58-.33.75-.88,0-.22.23-.36.65-.46a.54.54,0,0,0,.29-.59c0-.18-.14-.3-.26-.29a.43.43,0,0,0-.16.1,1.25,1.25,0,0,1-.64.36l-.22,0a1.08,1.08,0,0,1-1.1-.5L27,66.9c-.1-.14-.19-.2-.27-.19h0l-.06.06a.49.49,0,0,0,0,.4l.33.65a.31.31,0,0,1,0,.27c0,.08-.17.11-.27.13h0a2.81,2.81,0,0,1-2.53-1.43.38.38,0,0,0-.3-.21h0l-.09.09a.35.35,0,0,0,.08.33l.34.49c.12.16.11.22.1.24s-.08.07-.18.09a3.75,3.75,0,0,1-2.5-.95.57.57,0,0,0-.29-.1.21.21,0,0,0-.08.29l.12.3c0,.07.05.15,0,.19s-.09.07-.2.08l-1.38.15c-.2,0-.33.09-.33.19s.19.2.52.18a9.21,9.21,0,0,1,3.13.16c.06,0,.15,0,.17.09a.3.3,0,0,1-.06.21l-.51.52c-.13.12-.19.24-.16.33s0,.1.19.1l.18,0a4.42,4.42,0,0,1,1.9-.81,1.36,1.36,0,0,1,.5,0,.32.32,0,0,1,.24.52l-.26.62c-.05.17-.08.29,0,.36h.12a.4.4,0,0,0,.27-.14c.46-.52,1-1.11,1.61-1.15Z"/><path class="cls-2" d="M19.59,66.11a.44.44,0,0,1-.28-.1,4.11,4.11,0,0,0-3.11-1,6.92,6.92,0,0,0-1.33.26.3.3,0,0,1-.19-.11.59.59,0,0,1,0-.43c0-.27-.11-.39-.33-.37a.93.93,0,0,0-.22,0,5.92,5.92,0,0,1-.6.08,2.51,2.51,0,0,1-2.68-1.12.31.31,0,0,1,0-.25.32.32,0,0,1,.24-.1l1.82-.23c.19,0,.25-.1.27-.18s-.06-.23-.28-.28c-1.82-.29-2.92-.84-3.26-1.62a.38.38,0,0,1,0-.29c0-.06.14-.1.31-.11l1.39.13c.22,0,.32-.05.34-.13s-.06-.2-.26-.32L10,59.24a.38.38,0,0,1-.16-.37.54.54,0,0,1,.48-.24h.55a.62.62,0,0,0,.44-.17c.15-.17.14-.43.13-.9v-.42c0-.31.08-.49.18-.5s.28.07.73.68c.21.27.36.41.49.4s.25-.3.35-.77c.06-.21.17-.22.2-.22a.58.58,0,0,1,.32.12c.56.32.58,1.76.51,3.11a.31.31,0,0,0,.08.27.22.22,0,0,0,.2.09c.08,0,.26-.06.31-.42L15,59c.07-.24.18-.37.33-.38a.84.84,0,0,1,.51.21c.53.48.68,1.26.62,3.1a.53.53,0,0,0,.1.33.31.31,0,0,0,.2.07c.14,0,.31-.14.41-.43.06-.12.13-.21.19-.22s.16.08.22.32a4.84,4.84,0,0,0,2.14,3.56.35.35,0,0,1,.12.38.22.22,0,0,1-.2.16m-4.72-2.45c.35,0,.57,0,.69.22s0,.12,0,.2.05.42.28.41l1.18-.07c.13,0,.19,0,.22-.09s0-.15-.05-.24c-.23-.49-.38-.56-.6-.54h-.13a.61.61,0,0,1-.35-.06c-.51-.27-.72-1.1-.64-2.51a.44.44,0,0,0-.05-.34h-.09c-.11,0-.17.1-.2.34l-.12.69c0,.29-.14.3-.18.31a.6.6,0,0,1-.23,0,2.57,2.57,0,0,1-1.17-1.76c0-.31.08-1.76-.45-.86-.18.13-.5-.43-.69-.86,0-.16-.12-.25-.22-.24a.31.31,0,0,0-.15.32.4.4,0,0,1-.15.4c-.13.06-.25.13-.24.23s.09.13.29.16c.46.09.9.63,1.27,1.62.06.13.05.18,0,.19l-1.4,0h-.19c-.18,0-.21.1-.21.14s.19.28.38.29l1.42.2a1.21,1.21,0,0,1,1.12.72.51.51,0,0,1,.12.39.2.2,0,0,1-.16.13,10.24,10.24,0,0,1-1.59.4c-.22,0-.32.09-.34.18s.09.17.4.27a1.4,1.4,0,0,0,.57,0,5.18,5.18,0,0,0,.81-.15c.27,0,.54-.11.78-.13"/><path class="cls-2" d="M19.17,62.85a.39.39,0,0,1-.39-.28.38.38,0,0,1,.1-.38,1,1,0,0,1,.57-.24.46.46,0,0,1,.42.13.44.44,0,0,1,.12.37.89.89,0,0,1-.79.4Z"/><path class="cls-2" d="M15.69,67.29h-.22a.59.59,0,0,1-.37-.51.64.64,0,0,1,.23-.52,1.22,1.22,0,0,1,.33-.1c.3,0,.48.2.55.66a.43.43,0,0,1-.1.31.63.63,0,0,1-.42.16"/><path class="cls-2" d="M20.38,65.48c-.13,0-.39-.18-.66-.61a1.32,1.32,0,0,0-.8-.69.47.47,0,0,1-.3-.52.41.41,0,0,1,.39-.33h.16a3.33,3.33,0,0,0,.79-.21.68.68,0,0,1,.25-.07.39.39,0,0,1,.43.24.44.44,0,0,1-.11.46.67.67,0,0,0-.27.77c.23.53.24.82.19.91Z"/><path class="cls-2" d="M17,67.52a.33.33,0,0,1-.38-.27,1.9,1.9,0,0,0-.17-.87.65.65,0,0,1-.06-.64.4.4,0,0,1,.32-.2.81.81,0,0,1,.39.1,1.15,1.15,0,0,0,.94.35,1.09,1.09,0,0,1,.8.18c.12.11.13.19.12.23a2.3,2.3,0,0,1-.28,0h0a1.21,1.21,0,0,0-1.12.68.64.64,0,0,1-.52.39"/><path class="cls-2" d="M10.64,58.12a.75.75,0,0,1-.24,0,6.71,6.71,0,0,1-2.09-1.56,1.88,1.88,0,0,0-1.39-1,3.29,3.29,0,0,1-2.24-1.06c-.09-.14-.07-.2-.06-.23s.09-.07.22-.08h.61c.23,0,.27-.12.27-.16s-.12-.27-.36-.33c-1.68-.29-2.5-.76-2.6-1.48-.06-.18-.06-.28,0-.35s.13-.1.29-.11a1.26,1.26,0,0,1,.33,0h.18c.05,0,.18,0,.21-.12s0-.15-.34-.28A3,3,0,0,1,2,50.34a.52.52,0,0,1,0-.51.38.38,0,0,1,.31-.18.74.74,0,0,1,.25,0,.86.86,0,0,0,.37.1.23.23,0,0,0,.2-.14c.06-.15,0-.37-.27-.6a.5.5,0,0,1,0-.38c0-.08.18-.13.38-.14l.34,0a1,1,0,0,0,.62-.34.46.46,0,0,1,.23-.08c.15,0,.28.07.41.29s.26.52.48.5.24-.07.33-.4.23-.6.41-.62a.53.53,0,0,1,.29.09c.36.21.37.83,0,1.84,0,.18,0,.31,0,.38l0,0,.13,0c.18,0,.38-.26.48-.56.1-.79.33-1.19.7-1.21a.8.8,0,0,1,.26,0,.76.76,0,0,1,.56.38,3.79,3.79,0,0,1-.22,2.62.52.52,0,0,0,0,.47.23.23,0,0,0,.22.1.54.54,0,0,0,.33-.19.74.74,0,0,1,.43-.33.28.28,0,0,1,.21.11,1.26,1.26,0,0,1-.06,1.09c-1,2.12-.61,3.74,1.24,4.81a.39.39,0,0,1,.16.41.22.22,0,0,1-.2.13M6.42,54.54c-.12,0-.18.09-.18.16a.19.19,0,0,0,.21.19c.56,0,1,0,1.27.24.1.11.18.12.23.11H8l.09-.09a.29.29,0,0,0,0-.28c-.25-.31-.16-.67.25-1.2a.35.35,0,0,0,.11-.33l0,0-.13,0a.35.35,0,0,0-.17.06l-.28.06a.55.55,0,0,1-.52-.22,1.52,1.52,0,0,1,0-1.3L8,49.92c0-.12.07-.27,0-.33H7.89c-.13,0-.2.13-.24.22-.17.36-.3.7-.41,1-.18.49-.33.89-.51.9s-.57-.5-.82-.89a1.65,1.65,0,0,1,0-1.58.39.39,0,0,0,0-.31H5.75a.2.2,0,0,0-.19.16c-.17.31-.28.44-.38.45s-.34-.21-.59-.51a.25.25,0,0,0-.22-.09.27.27,0,0,0-.23.17.33.33,0,0,0,.07.37l.11.1c.23.24.64.62.59.72l-.11,0a1.7,1.7,0,0,1-.61-.06l-.15,0a.19.19,0,0,0-.19.15c0,.08,0,.19.27.22,1.23.12,2.15,1.08,2.09,1.63,0,.19-.18.29-.43.31a2.12,2.12,0,0,1-.84-.12l-.14,0a.21.21,0,0,0-.21.19c0,.1.06.22.29.23,1.31.08,2.23.84,2.21,1.29,0,.27-.34.41-.61.46Z"/><path class="cls-2" d="M10.24,57c-.1,0-.18-.07-.2-.21a2.92,2.92,0,0,0-.48-1.69.59.59,0,0,1-.07-.59.32.32,0,0,1,.28-.17.55.55,0,0,1,.18,0,3.25,3.25,0,0,0,1.17.26.41.41,0,0,1,.39.35.31.31,0,0,1-.17.36,1,1,0,0,0-.78,1.12c0,.37-.18.55-.32.56"/><path class="cls-2" d="M10.92,54a2.25,2.25,0,0,1-.26,0c-.28,0-.45-.18-.47-.4a.53.53,0,0,1,.35-.5l.29,0a.57.57,0,0,1,.45.12.64.64,0,0,1,.13.52c-.05.19-.21.29-.49.31"/><path class="cls-2" d="M6.37,58a.45.45,0,0,1-.48-.26.72.72,0,0,1,.05-.7.58.58,0,0,1,.4-.26.47.47,0,0,1,.48.41.75.75,0,0,1-.05.57.58.58,0,0,1-.4.24"/><path class="cls-2" d="M7.42,58.63a.45.45,0,0,1-.4-.14.3.3,0,0,1,0-.28,4,4,0,0,0,.17-1.12.52.52,0,0,1,.45-.54A.45.45,0,0,1,8,56.8a1.28,1.28,0,0,0,.75.73c.55.29.72.55.7.65s-.11.09-.23.1H9.05a1.33,1.33,0,0,0-.71-.18.5.5,0,0,0-.41.24.68.68,0,0,1-.51.29"/><path class="cls-2" d="M4.4,47.71l-.17-.05a1.23,1.23,0,0,1-.61-.9c-.27-1.43-.61-1.83-1.06-2-.67-.28-.74-.6-.74-.81,0-.59-.25-.77-.53-.86a1.5,1.5,0,0,1-1.2-1c-.14-.49-.09-.68,0-.77a.22.22,0,0,1,.18-.09,1.57,1.57,0,0,1,.7.23.44.44,0,0,0,.16,0,.22.22,0,0,0,.17-.11c.07-.11.05-.26,0-.49L.75,40a1,1,0,0,1,.14-1.21c.27-.33.44-.42.51-.42a.14.14,0,0,1,.14.08c.35.54.5.59.61.59s.22-.38.22-.49c.06-.86.25-1.89.8-1.94a.61.61,0,0,1,.31.06.67.67,0,0,0,.47.15,1.37,1.37,0,0,0,.83-.52.87.87,0,0,1,.29-.13c.1,0,.22,0,.31.33a1.76,1.76,0,0,1-.55,1.74c-.17.26-.22.4-.18.49a.14.14,0,0,0,.16.06,2.07,2.07,0,0,0,.75-.32.44.44,0,0,1,.22-.11c.12,0,.18.11.21.36.12.74-.42,1.36-1.72,2A.37.37,0,0,0,4,41.1a.23.23,0,0,0,.27.21.59.59,0,0,0,.25-.09,1.48,1.48,0,0,1,.71-.33.34.34,0,0,1,.39.21c.07.2,0,.6-.47,1.06-.28.45-.45.67-.72.77s-.25.14-.27.23a.31.31,0,0,0,.1.31c.17.16.17.39,0,.66-.48.43-.44,1.37.13,2.88a.56.56,0,0,1,.15.58.2.2,0,0,1-.15.12M1.57,40s0,.14.08.36c.4.66.85,1.45.69,1.86a.41.41,0,0,1-.29.25c-.09,0-.25,0-.29.16s.06.22.1.25a.89.89,0,0,0,.4.25c.32.14.5.24.34.64l0,.46a.87.87,0,0,0,.6.32.29.29,0,0,0,.25-.21.6.6,0,0,0-.31-.63c-.16,0-.25-.12-.26-.2s0-.19.3-.44c.59-.65.62-.78.59-.85v-.05h-.1a1.07,1.07,0,0,0-.24.09l-.22,0c-.29,0-.38-.12-.42-.62,0-.68.09-.75.39-.95.65-.4.75-.54.73-.64S3.81,40,3.5,40L3.31,40a.14.14,0,0,1-.12,0,.4.4,0,0,1,0-.26,2.26,2.26,0,0,1,.71-1.37c.12-.16.21-.29.17-.41s-.2-.1-.32-.09a1.1,1.1,0,0,0-.77.37,1,1,0,0,0-.17.73l-.15,1.1c0,.16-.1.36-.22.37a.3.3,0,0,1-.21-.1C1.84,40,1.72,40,1.66,40h0Z"/><path class="cls-2" d="M6.43,44.37A.8.8,0,0,1,6,44.26a.39.39,0,0,1-.16-.47.5.5,0,0,1,.45-.35c.35,0,.57.09.65.24a.57.57,0,0,1,0,.51.77.77,0,0,1-.44.18"/><path class="cls-2" d="M.64,46.09A.6.6,0,0,1,.27,46a.53.53,0,0,1-.13-.55A.61.61,0,0,1,.53,45l.19,0a.38.38,0,0,1,.35.13.78.78,0,0,1,0,.68.61.61,0,0,1-.47.33"/><path class="cls-2" d="M3.2,47.35A.23.23,0,0,1,3,47.29c-.37-.33-.68-.54-1-.51a.54.54,0,0,0-.33.16.74.74,0,0,1-.3.08.38.38,0,0,1-.37-.13.4.4,0,0,1,0-.4A7.08,7.08,0,0,0,1.6,45.4.5.5,0,0,1,2,45.14a.49.49,0,0,1,.51.46l.14.48.61.79a.42.42,0,0,1,.07.4Z"/><path class="cls-2" d="M5.15,46.94s-.1,0-.19-.25a1.91,1.91,0,0,1,0-.79,1.07,1.07,0,0,0-.08-.84.5.5,0,0,1,0-.5.4.4,0,0,1,.3-.23l.14,0a10.36,10.36,0,0,0,1,.51.44.44,0,0,1,.38.47c0,.19-.2.32-.48.36s-.68.36-.87,1c-.13.24-.2.27-.23.28"/><path class="cls-2" d="M53.73,63.84a.54.54,0,0,1-.43-.15.44.44,0,0,1-.06-.38c.1-.26,0-.49-.32-.72a.84.84,0,0,1-.17-.88,1,1,0,0,1,.81-.49.79.79,0,0,1,.72.28,1,1,0,0,1,0,1,.57.57,0,0,0-.16.7.48.48,0,0,1,0,.44.52.52,0,0,1-.38.21"/><path class="cls-2" d="M62.92,55.67a.34.34,0,0,1-.39-.3c0-.27-.24-.42-.63-.45s-.63-.45-.57-.79a1.16,1.16,0,0,1,1-.84c.42,0,.7.26.78.86a.54.54,0,0,0,.2.66.43.43,0,0,1,.16.48.62.62,0,0,1-.51.38"/><path class="cls-2" d="M67.82,45a.44.44,0,0,1-.39-.23.45.45,0,0,0-.54-.27l-.18,0c-.66-.11-.72-.51-.71-.75a1.1,1.1,0,0,1,.87-1c.31,0,.58.2.77.65l0,.11A.52.52,0,0,0,68,44a.4.4,0,0,1,.27.49.59.59,0,0,1-.46.46"/><path class="cls-2" d="M56,67.38a.93.93,0,0,1-.82-.54.51.51,0,0,0-.44-.53.4.4,0,0,1-.33-.44.64.64,0,0,1,.5-.52.39.39,0,0,1,.34.17.47.47,0,0,0,.47.22,3,3,0,0,0,.3-.07c.53,0,.85.19.86.61a1.15,1.15,0,0,1-.88,1.1"/><path class="cls-2" d="M66.36,57.6a1.21,1.21,0,0,1-.67-.17.55.55,0,0,0-.48-.26l-.17,0-.11,0a.41.41,0,0,1-.34-.1.43.43,0,0,1-.12-.28.51.51,0,0,1,.47-.54h.17a.36.36,0,0,0,.23.06.76.76,0,0,0,.49-.3,1.19,1.19,0,0,1,.47-.16.59.59,0,0,1,.57.29,1.06,1.06,0,0,1,0,1,.66.66,0,0,1-.54.38"/><path class="cls-2" d="M71.6,45.77a1.05,1.05,0,0,1-.45-.05.62.62,0,0,0-.47-.15.67.67,0,0,0-.31.1s-.11,0-.17,0a.44.44,0,0,1-.5-.43.59.59,0,0,1,.1-.34.38.38,0,0,1,.3-.16h.14l.16,0a.69.69,0,0,0,.51-.42,1.08,1.08,0,0,1,.6-.32.56.56,0,0,1,.53.3,1.17,1.17,0,0,1,.09,1.07.62.62,0,0,1-.53.34"/><path class="cls-2" d="M45.31,70.13a2.43,2.43,0,0,1-.8-.09,9.61,9.61,0,0,1-2.38-1.18,7.37,7.37,0,0,0-3.25-1,.38.38,0,0,1-.31-.45.44.44,0,0,1,.36-.42,16.46,16.46,0,0,1,3.77,1.12,1.69,1.69,0,0,0,.73.11,2,2,0,0,0,.86-.3l.49-.21a21.15,21.15,0,0,1,6.78-2.19q.39,0,.78,0c.23,0,.33,0,.33.08s-.1.17-.63.23h-.23a3.48,3.48,0,0,0-1.34.4c-.64.29-1.23.6-1.79.89A8.55,8.55,0,0,1,46,68.25a.87.87,0,0,1-.23,0c-.77.1-1.24.32-1.24.56s.17.26.46.28a3.2,3.2,0,0,0,.62,0,7.67,7.67,0,0,0,2.69-.87,12.1,12.1,0,0,1,4.52-2.06H53a.52.52,0,0,1,.18,0,1.32,1.32,0,0,1-.19.34,13,13,0,0,1-4.7,2.64c-.45.15-.86.32-1.23.46a6.62,6.62,0,0,1-1.72.54"/><path class="cls-2" d="M47.42,71.51c-1.57.13-2.53-.19-3-1a3.9,3.9,0,0,0,1.16.08,12.82,12.82,0,0,0,4-1.37A8.93,8.93,0,0,1,52,68.29c.35,0,.52,0,.54.13s0,.13-.16.19l-4.27,1.75c-.25.09-.39.23-.37.35s.13.16.31.15A12.51,12.51,0,0,0,51,69.66a6.26,6.26,0,0,1,2.16-.85h.29c.15,0,.21.06.21.08s0,.11-.24.22a31,31,0,0,1-5.57,2.36l-.38,0"/><path class="cls-2" d="M43.72,67.89c-.45,0-1-.12-1.13-.44h.06A4.31,4.31,0,0,0,45,66.11,14.65,14.65,0,0,1,46.36,65a1.59,1.59,0,0,1,.67-.24,3,3,0,0,0,1-.31,3.87,3.87,0,0,1,1.62-.6,1.64,1.64,0,0,1,.94.18c.22.17.23.23.23.24H50.6a2.67,2.67,0,0,0-.4,0,3.55,3.55,0,0,0-1.83.76l-1.61.47c-.43.13-.87.38-.85.58s.05.13.25.11l.14,0,.8-.21a2.52,2.52,0,0,0,.79-.35A2.87,2.87,0,0,1,49,65.2a6.19,6.19,0,0,0,1.14-.33c.2-.07.4-.15.64-.22h0a.23.23,0,0,1,.28.23.3.3,0,0,1-.24.35c-.31.09-.62.16-.93.22a10.39,10.39,0,0,0-1.55.43,31.64,31.64,0,0,0-4.12,1.85.88.88,0,0,1-.51.16"/><path class="cls-2" d="M53.92,65.23a.44.44,0,0,1-.44-.24.36.36,0,0,1,.13-.39c.08-.27.45-.53,1-.88a10.65,10.65,0,0,0,2.84-2.6,15.62,15.62,0,0,1,3.16-3c.56-.45,1.16-.94,1.77-1.46.22-.24.29-.26.3-.26a.88.88,0,0,1,0,.24,5,5,0,0,1-2.15,2.52,13.05,13.05,0,0,0-3.41,3.23c-.13.21-.16.32-.11.39l0,0h.09c.07,0,.21-.05.66-.39a11,11,0,0,1,2.84-2.62,6.69,6.69,0,0,0,2.27-2.62A1.21,1.21,0,0,1,63,57a1.68,1.68,0,0,1,0,.59,3.83,3.83,0,0,1-1.69,2.78,15.07,15.07,0,0,1-4.06,3.06c-1.53.34-2.48.84-2.9,1.53a.57.57,0,0,1-.44.28"/><path class="cls-2" d="M58.94,64.2l-1,0q-.49,0-1,.06c-.22,0-.29,0-.3-.11s0-.16.24-.23A11.81,11.81,0,0,0,63,59.31a.63.63,0,0,1,.39-.21l.15,0a.24.24,0,0,1,0,.21,9.82,9.82,0,0,1-3.19,3.33L60,63c-.21.15-.34.34-.3.47a.17.17,0,0,0,.2.12.38.38,0,0,0,.18-.06,14.6,14.6,0,0,0,4-4c.07-.12.13-.13.14-.13s.09.06.1.2c.12.47-.23,1.1-1,1.87a12.62,12.62,0,0,1-2.79,2.5,7.85,7.85,0,0,1-1.58.29"/><path class="cls-2" d="M55.48,62.55c-.07,0-.12,0-.13,0s0-.14,0-.29a8.67,8.67,0,0,0,.34-1.76,3.11,3.11,0,0,1,1.19-1.84,24.38,24.38,0,0,0,2.88-2.8c.07-.09.1-.1.1-.1s0,0,.07.28c0,.43-.4.82-1,1.41a16.6,16.6,0,0,0-1.25,1.26l-1,1.2c-.11.21-.14.34-.09.42l0,0,.13,0a1,1,0,0,0,.51-.35,13.41,13.41,0,0,1,2.15-2.45c.18-.16.26-.19.29-.19s.08.1,0,.39a2.58,2.58,0,0,1-1.09,1.41,7.71,7.71,0,0,0-1.87,2.22,3,3,0,0,1-1.19,1.18"/><path class="cls-2" d="M63.7,56.72a.25.25,0,0,1-.23-.13.42.42,0,0,1,0-.42A6.75,6.75,0,0,0,65,52.59l.28-.73a18.74,18.74,0,0,1,2.52-5c.21-.21.28-.23.3-.23s0,0,0,.35a27.65,27.65,0,0,1-1.39,3.39,23.58,23.58,0,0,0-1.06,2.45c-.07.23-.07.36,0,.43l0,0,.09,0c.08,0,.17-.06.3-.18a14.09,14.09,0,0,0,1.73-3.9,17.32,17.32,0,0,1,1.11-2.9c.2-.31.28-.34.29-.34s.09,0,.1.47a14.33,14.33,0,0,1-2.06,6.28,4.23,4.23,0,0,1-.84.85,3.06,3.06,0,0,0-.87,1,7.36,7.36,0,0,1-1.41,2,.69.69,0,0,1-.34.2"/><path class="cls-2" d="M64.19,53.77s-.11,0-.21-.13c-1.53-2.3,0-5,1.53-6.83.18-.17.29-.2.34-.2s.1.14.06.25a2.84,2.84,0,0,0-.72,1.61A3.69,3.69,0,0,1,64.52,50a3.44,3.44,0,0,0-.33.56c-.21.45-.27.78-.18.91l0,0,.11,0c.1,0,.19-.13.26-.22a14.51,14.51,0,0,0,1.07-2.48,7.19,7.19,0,0,1,.9-2c.12-.15.22-.19.27-.19l.12.05a.45.45,0,0,1,.09.34,18,18,0,0,1-1.68,3.71,4.1,4.1,0,0,0-.64,1.87c-.1.61-.19,1.13-.34,1.14"/><path class="cls-2" d="M66.22,54.71l-.11,0s0-.11.11-.36a8.6,8.6,0,0,0,2.33-3.22c.3-1.55.76-2.33,1.67-2.86a1.28,1.28,0,0,1,.42-.17s0,.1-.26.45a6.43,6.43,0,0,0-1.09,2.15,7,7,0,0,1-1.06,2.1c-.17.24-.22.37-.17.45l0,0,.1,0a.76.76,0,0,0,.27-.1,4.82,4.82,0,0,0,1-2,9.33,9.33,0,0,1,1.42-2.86.75.75,0,0,1,.31-.17s.06.06-.1.43c-.24.56-.45,1.15-.63,1.72A11.2,11.2,0,0,1,69,53.45a3.22,3.22,0,0,1-.94.61c-.21.09-.41.15-.62.22a4.67,4.67,0,0,0-.68.25,1.88,1.88,0,0,1-.55.18"/><path class="cls-2" d="M68.45,42.69c-.06,0-.14,0-.25-.13-1.38-1.08-1.72-2.88-1.08-5.66,0-.12.06-.21.08-.28l.11.07A1.21,1.21,0,0,1,67.55,38a5.09,5.09,0,0,0,.15,3c.09.19.21.25.3.24h0l.09-.08a.27.27,0,0,0,0-.26,3.66,3.66,0,0,1-.17-2.26,1.64,1.64,0,0,0,0-.7c0-.17,0-.21,0-.22h0a.39.39,0,0,1,.21.07c.2.22.39.59.23,1.76a3.74,3.74,0,0,0,.09,1.74,1.63,1.63,0,0,1,.09,1.21c0,.11-.09.17-.15.17"/><path class="cls-2" d="M68.77,45.63a.31.31,0,0,1-.25-.09.42.42,0,0,1-.08-.34,10.52,10.52,0,0,1,.28-1.81A7.39,7.39,0,0,0,69,41.25c-.08-2.68.19-4.25.84-5a.63.63,0,0,1,.27-.17c.08,0,.14.1.17.3a2.93,2.93,0,0,1-.41,2,7,7,0,0,0-.31,2.83.34.34,0,0,0,.11.28.24.24,0,0,0,.21.08c.13,0,.28-.14.29-.47a5.69,5.69,0,0,1,.3-2.8,2.83,2.83,0,0,0,.22-1.94c0-.19,0-.22,0-.22s.06,0,.2.13.39.42.43,1.42a9.69,9.69,0,0,1-.47,3.31,10.42,10.42,0,0,1-.79,1.36,5.79,5.79,0,0,0-.79,1.47,2,2,0,0,0-.16,1.3.38.38,0,0,1-.33.41"/><path class="cls-2" d="M69.93,44h-.07s0-.12.07-.41l1.38-2.26c.31-.4.46-1.59.48-3.72,0-.23,0-.29,0-.31h0l.12,0c.23.14.44.34.3.89L72,40.07l-.24,1.25a.41.41,0,0,0,.07.31l0,0,.1,0c.11,0,.23-.12.23-.34a3.28,3.28,0,0,1,.36-1.63,4.52,4.52,0,0,0,0-2.46.37.37,0,0,1,0-.18s.06,0,.22.22A1.75,1.75,0,0,1,73.13,39,2.23,2.23,0,0,0,73,40.16a2.28,2.28,0,0,1-.47,1.6l-2,1.89a1.48,1.48,0,0,1-.63.34"/></g></svg>