<?xml version="1.0" encoding="utf-8"?>
<!-- Generator: Adobe Illustrator 23.0.3, SVG Export Plug-In . SVG Version: 6.00 Build 0)  -->
<svg version="1.1" id="Capa_1" xmlns="http://www.w3.org/2000/svg" xmlns:xlink="http://www.w3.org/1999/xlink" x="0px" y="0px"
	 viewBox="0 0 368.5 60" style="enable-background:new 0 0 368.5 60;" xml:space="preserve">
<style type="text/css">
	.st0{fill:#142637;}
</style>
<g>
	<g>
		<path class="st0" d="M312.6,42.9c-2.5,2.4-5.8,3.9-9.5,3.9c-7.4,0.1-13.7-6-13.9-13.4c-0.2-7.8,6.1-14.2,13.8-14.2
			c3.7,0,7,1.4,9.5,3.8c0.3,0.3,0.8,0.3,1.2,0l6.2-5.8c0.3-0.3,0.4-0.9,0-1.2c-4.6-4.6-11-7.3-18.1-6.9
			c-12.2,0.6-22.2,10.6-22.8,22.8C278.4,45.7,289.3,57,303,57c6.6,0,12.6-2.7,16.9-7c0.3-0.3,0.3-0.9,0-1.2l-6.1-5.8
			C313.4,42.6,312.9,42.6,312.6,42.9z"/>
		<path class="st0" d="M11.6,56.1H3c-0.6,0-1-0.5-0.9-1.1l8.4-44.4c0.1-0.4,0.5-0.7,0.9-0.7h2.3c0.4,0,0.7,0.2,0.8,0.5L28,37.3
			c0.3,0.7,1.3,0.7,1.6,0L43,10.5c0.1-0.3,0.5-0.5,0.8-0.5h2.3c0.4,0,0.8,0.3,0.9,0.7l8.5,44.4c0.1,0.6-0.3,1.1-0.9,1.1H46
			c-0.5,0-0.8-0.3-0.9-0.8l-1.9-21.3c-0.1-0.9-1.3-1.1-1.7-0.3L30.6,55.2c-0.2,0.3-0.5,0.5-0.8,0.5h-2c-0.3,0-0.6-0.2-0.8-0.5
			L15.9,34c-0.4-0.8-1.6-0.6-1.7,0.3l-1.7,21C12.5,55.8,12.1,56.1,11.6,56.1z"/>
		<path class="st0" d="M92.5,56.1H65.6c-0.5,0-0.9-0.4-0.9-0.9V10.9c0-0.5,0.4-0.9,0.9-0.9h26.6c0.5,0,0.9,0.4,0.9,0.9v6.6
			c0,0.5-0.4,0.9-0.9,0.9h-16c-0.5,0-0.9,0.4-0.9,0.9V28c0,0.5,0.4,0.9,0.9,0.9h14.1c0.5,0,0.9,0.4,0.9,0.9v6.6
			c0,0.5-0.4,0.9-0.9,0.9h-14c-0.5,0-0.9,0.4-0.9,0.9v8.7c0,0.5,0.4,0.9,0.9,0.9h16.3c0.5,0,0.9,0.4,0.9,0.9v6.6
			C93.4,55.7,93,56.1,92.5,56.1z"/>
		<path class="st0" d="M227.6,56.1h-8.7c-0.5,0-0.9-0.4-0.9-0.9V10.9c0-0.5,0.4-0.9,0.9-0.9H234c5.2,0,9.3,1.4,12.4,4.1
			c3.1,2.7,4.7,6.3,4.7,10.7c0,6.2-2.5,10.6-7.5,13.2c-0.5,0.2-0.7,0.8-0.4,1.3l9.6,15.5c0.4,0.6,0,1.4-0.8,1.4h-9.8
			c-0.3,0-0.6-0.2-0.8-0.4L235,40.5c-0.2-0.3-0.5-0.4-0.8-0.4h-4.8c-0.5,0-0.9,0.4-0.9,0.9v14.2C228.5,55.7,228.1,56.1,227.6,56.1z
			 M233.7,18.5h-4.3c-0.5,0-0.9,0.4-0.9,0.9v11.2c0,0.5,0.4,0.9,0.9,0.9h4.1c4.6,0,6.8-2.2,6.8-6.7c0-2-0.6-3.5-1.8-4.6
			C237.4,19.1,235.7,18.5,233.7,18.5z"/>
		<path class="st0" d="M271,56.1h-8.7c-0.5,0-0.9-0.4-0.9-0.9V10.9c0-0.5,0.4-0.9,0.9-0.9h8.7c0.5,0,0.9,0.4,0.9,0.9v44.4
			C271.9,55.7,271.5,56.1,271,56.1z"/>
		<path class="st0" d="M332.4,56.1h-9.1c-0.6,0-1.1-0.7-0.8-1.3l19.4-44.4c0.1-0.3,0.5-0.5,0.8-0.5h2.6c0.4,0,0.7,0.2,0.8,0.5
			l19.4,44.4c0.3,0.6-0.2,1.3-0.8,1.3h-9.3c-0.4,0-0.7-0.2-0.8-0.5l-1.8-5.2c-0.1-0.3-0.5-0.5-0.8-0.5h-16.2c-0.4,0-0.7,0.2-0.8,0.5
			l-1.7,5.2C333.1,55.9,332.8,56.1,332.4,56.1z M339.1,41.7h9.7c0.7,0,1.1-0.7,0.8-1.3l-4.5-13.7c-0.3-1.1-1.9-1.2-2.3,0l-4.5,13.7
			C338,41,338.5,41.7,339.1,41.7z"/>
		<path class="st0" d="M111.6,56.1H103c-0.6,0-1-0.5-0.9-1.1l8.4-44.4c0.1-0.4,0.5-0.7,0.9-0.7h2.3c0.4,0,0.7,0.2,0.8,0.5L128,37.3
			c0.3,0.7,1.3,0.7,1.6,0L143,10.5c0.1-0.3,0.5-0.5,0.8-0.5h2.3c0.4,0,0.8,0.3,0.9,0.7l8.5,44.4c0.1,0.6-0.3,1.1-0.9,1.1H146
			c-0.5,0-0.8-0.3-0.9-0.8l-1.9-21.3c-0.1-0.9-1.3-1.1-1.7-0.3l-11.1,21.4c-0.2,0.3-0.5,0.5-0.8,0.5h-2c-0.3,0-0.6-0.2-0.8-0.5
			L115.9,34c-0.4-0.8-1.6-0.6-1.7,0.3l-1.7,21C112.4,55.8,112,56.1,111.6,56.1z"/>
		<g>
			<path class="st0" d="M207,21.6c-1.7-3-4-5.6-6.6-7.5l5.1-8.8l0,0c0.8-1.6,0.2-3.5-1.3-4.4s-3.5-0.4-4.5,1.1l0,0l-5.1,8.8
				c-7.1-3-15.5-2.7-22.7,1.5c-12.3,7.1-16.5,22.8-9.4,35.1s22.8,16.5,35.1,9.4S214.1,33.9,207,21.6z M195,52.3
				c-9.8,5.7-22.4,2.3-28.1-7.5c-5.7-9.8-2.3-22.4,7.5-28.1s22.4-2.3,28.1,7.5C208.2,34,204.9,46.6,195,52.3z"/>
		</g>
	</g>
</g>
</svg>
