<svg id="Modo_de_aislamiento" data-name="Modo de aislamiento" xmlns="http://www.w3.org/2000/svg" viewBox="0 0 249.92 73.19"><defs><style>.cls-1{fill:#000c13;}</style></defs><title>Memorica</title><path class="cls-1" d="M5.41,7.06a.76.76,0,0,1,.81-.68H7a.83.83,0,0,1,.77.45l10,21.4h.14l10-21.4a.77.77,0,0,1,.77-.45h.72a.77.77,0,0,1,.82.68l5.35,30.46a.79.79,0,0,1-.82,1H30.52a1,1,0,0,1-.86-.68L27,20.7h-.13L18.91,38.51a.76.76,0,0,1-.77.5h-.81a.8.8,0,0,1-.77-.5l-8-17.81H8.4L5.77,37.88a.87.87,0,0,1-.82.68H.88a.84.84,0,0,1-.87-1Z"/><path class="cls-1" d="M41.66,7.69a.87.87,0,0,1,.86-.86H61a.86.86,0,0,1,.86.86v3.72a.86.86,0,0,1-.86.86H47.55V19.7h11.2a.9.9,0,0,1,.86.87v3.76a.86.86,0,0,1-.86.86H47.55v7.93H61a.86.86,0,0,1,.86.86V37.7a.86.86,0,0,1-.86.86H42.52a.87.87,0,0,1-.86-.86Z"/><path class="cls-1" d="M71.62,7.06a.77.77,0,0,1,.82-.68h.72a.83.83,0,0,1,.77.45l10,21.4H84L94,6.83a.78.78,0,0,1,.77-.45h.73a.76.76,0,0,1,.81.68l5.35,30.46a.79.79,0,0,1-.82,1H96.73a1,1,0,0,1-.86-.68L93.19,20.7h-.13L85.13,38.51a.77.77,0,0,1-.77.5h-.82a.81.81,0,0,1-.77-.5l-8-17.81h-.14L72,37.88a.87.87,0,0,1-.81.68H67.09a.83.83,0,0,1-.86-1Z"/><path class="cls-1" d="M147.94,7.69a.86.86,0,0,1,.86-.86h13a9.82,9.82,0,0,1,9.88,9.75c0,4.17-2.76,7.57-6.71,9.15l6.21,11.52a.86.86,0,0,1-.77,1.31h-4.76a.77.77,0,0,1-.72-.41l-6-12h-5V37.7a.89.89,0,0,1-.86.86H148.8a.86.86,0,0,1-.86-.86Zm13.32,13.6a4.62,4.62,0,0,0,4.49-4.62,4.51,4.51,0,0,0-4.49-4.4h-7.39v9Z"/><path class="cls-1" d="M178.12,7.69a.89.89,0,0,1,.86-.86h4.21a.9.9,0,0,1,.87.86v30a.9.9,0,0,1-.87.86H179a.89.89,0,0,1-.86-.86Z"/><path class="cls-1" d="M206.35,6.38a15.35,15.35,0,0,1,11,4.21.84.84,0,0,1,.05,1.27l-2.77,2.86a.73.73,0,0,1-1.13,0,10.7,10.7,0,0,0-7-2.68A10.28,10.28,0,0,0,196.38,22.6a10.27,10.27,0,0,0,10.16,10.48,10.89,10.89,0,0,0,6.93-2.59.83.83,0,0,1,1.13,0l2.81,2.9a.86.86,0,0,1,0,1.23,15.56,15.56,0,0,1-11,4.39,16.32,16.32,0,1,1,0-32.63Z"/><path class="cls-1" d="M219.18,37.38l14.09-30.5a.82.82,0,0,1,.77-.5h.46a.77.77,0,0,1,.77.5l14,30.5a.8.8,0,0,1-.77,1.18h-4a1.3,1.3,0,0,1-1.31-.91L241,32.76H227.43l-2.23,4.89a1.35,1.35,0,0,1-1.31.91H220A.8.8,0,0,1,219.18,37.38Zm19.58-9.65-4.54-10h-.13l-4.44,10Z"/><path class="cls-1" d="M5.39,46.64a.29.29,0,0,1,.28-.22H6a.29.29,0,0,1,.31.22l6.28,18.73h.06L19,46.64a.29.29,0,0,1,.31-.22h.33a.3.3,0,0,1,.28.22l4.33,21c.06.31-.06.4-.34.4h-.73a.39.39,0,0,1-.36-.34L19.34,49.87h-.06L13.11,68.15a.4.4,0,0,1-.42.24h-.13a.35.35,0,0,1-.39-.24L6,49.87H5.94L2.49,67.75a.39.39,0,0,1-.36.34H1.4c-.28,0-.4-.09-.34-.4Z"/><path class="cls-1" d="M33,55.58a5.37,5.37,0,0,1,5.52,5.58c0,.49,0,1.19-.46,1.19H28.31a4.82,4.82,0,0,0,4.76,4.82A6.48,6.48,0,0,0,36.67,66c.27-.18.4-.21.55,0l.3.43c.09.12.06.3-.12.49A7.37,7.37,0,0,1,33,68.39c-3.73,0-6-2.87-6-6.44S29.25,55.58,33,55.58Zm4.18,5.67c0-2.38-1.44-4.45-4.18-4.45a4.53,4.53,0,0,0-4.64,4.45Zm-7-10.31-.18-.4c-.1-.21,0-.3.18-.43l5-2.65a.36.36,0,0,1,.52.09l.31.61c.12.25,0,.43-.28.55l-5.15,2.35C30.29,51.18,30.23,51.12,30.14,50.94Z"/><path class="cls-1" d="M45.33,61.83l-4.24-5.52c-.18-.22-.06-.43.19-.43h.79a.57.57,0,0,1,.46.28l3.57,4.73h0l3.6-4.73a.56.56,0,0,1,.46-.28H51c.24,0,.37.21.18.43L47,61.8l4.43,5.86a.24.24,0,0,1-.19.43H50.4a.57.57,0,0,1-.46-.28l-3.81-5.09h0l-3.82,5.09a.56.56,0,0,1-.45.28H41c-.24,0-.36-.22-.18-.43Z"/><path class="cls-1" d="M54.49,48.89a1,1,0,1,1,2.07,0,1,1,0,0,1-2.07,0Zm.36,7.39a.41.41,0,0,1,.4-.4h.55a.41.41,0,0,1,.4.4V67.69a.36.36,0,0,1-.4.4h-.61a.37.37,0,0,1-.34-.4Z"/><path class="cls-1" d="M66.33,55.58a5.89,5.89,0,0,1,4.51,1.92.36.36,0,0,1-.06.55l-.3.3c-.22.22-.46.12-.64-.06a5.08,5.08,0,0,0-3.51-1.4,5,5,0,0,0-5,5.06,5,5,0,0,0,5,5.16,4.89,4.89,0,0,0,3.81-1.8c.21-.24.4-.24.58-.06l.34.3c.15.16.21.31.09.49a6.09,6.09,0,0,1-4.79,2.35,6.41,6.41,0,1,1,0-12.81Z"/><path class="cls-1" d="M80.06,55.58A6.41,6.41,0,1,1,73.93,62,6.26,6.26,0,0,1,80.06,55.58Zm0,11.56A5.15,5.15,0,1,0,75.24,62,5,5,0,0,0,80.06,67.14Z"/><path class="cls-1" d="M91,66c.89,0,1.71.86,1.71,2.87a5.11,5.11,0,0,1-2.2,4.24c-.21.12-.39.15-.51,0l-.25-.3c-.12-.16-.09-.34.12-.49a4.07,4.07,0,0,0,1.71-2.9,2.7,2.7,0,0,0-.15-1.16.91.91,0,0,1-.49.15A1.21,1.21,0,1,1,91,66Z"/><path class="cls-1" d="M103.58,47.12a.41.41,0,0,1,.43-.39h.49a.41.41,0,0,1,.4.39V57.53a6.39,6.39,0,0,1,4.42-2c3.17,0,4.91,2,4.91,5.58v6.53a.41.41,0,0,1-.39.4h-.55a.41.41,0,0,1-.4-.4V61.16c0-2.81-1.31-4.27-3.63-4.27A6.16,6.16,0,0,0,104.9,59v8.67a.36.36,0,0,1-.4.4h-.58a.37.37,0,0,1-.34-.4Z"/><path class="cls-1" d="M122.84,60.21a10.14,10.14,0,0,1,3.08.55c0-2.68-.28-4-2.69-4a9.05,9.05,0,0,0-3.66.82.32.32,0,0,1-.46-.24L119,57c-.09-.28,0-.4.19-.46a8.84,8.84,0,0,1,4.18-.91c3.72,0,3.87,2.22,3.87,5.34v6.77a.41.41,0,0,1-.4.4h-.36c-.22,0-.31-.13-.37-.34l-.12-1.1a6.39,6.39,0,0,1-4.24,1.74,3.84,3.84,0,0,1-4-4.06C117.71,62,119.63,60.21,122.84,60.21Zm-1,7a5.57,5.57,0,0,0,4.06-1.89V62a8,8,0,0,0-3.08-.64c-2.32,0-3.88,1.19-3.88,3A2.76,2.76,0,0,0,121.86,67.2Z"/><path class="cls-1" d="M130.43,67.42l7.18-10.23V57.1h-6.23a.38.38,0,0,1-.37-.4v-.42a.37.37,0,0,1,.37-.4h7.9a.37.37,0,0,1,.34.58l-7.14,10.31v.1h6.32a.36.36,0,0,1,.39.39v.43a.39.39,0,0,1-.39.4h-8a.36.36,0,0,1-.37-.34Z"/><path class="cls-1" d="M149.66,56.28a.4.4,0,0,1,.39-.4h.37a.34.34,0,0,1,.34.31l.15,1.31a5.31,5.31,0,0,1,4.21-1.92,4.25,4.25,0,0,1,4,2.22,6.18,6.18,0,0,1,4.57-2.22c3.33,0,4.76,2.16,4.76,5.58v6.53a.41.41,0,0,1-.39.4h-.61a.36.36,0,0,1-.34-.4V61.16c0-2.81-1.22-4.27-3.51-4.27a5.23,5.23,0,0,0-4,2.07,7.78,7.78,0,0,1,.28,2.2v6.53a.41.41,0,0,1-.4.4h-.58a.36.36,0,0,1-.36-.4V61.16c0-2.81-1.25-4.27-3.54-4.27a4.94,4.94,0,0,0-4,2.1v8.7a.36.36,0,0,1-.4.4H150a.36.36,0,0,1-.33-.4Z"/><path class="cls-1" d="M178.07,55.58a5.37,5.37,0,0,1,5.52,5.58c0,.49,0,1.19-.46,1.19H173.4a4.82,4.82,0,0,0,4.76,4.82,6.51,6.51,0,0,0,3.6-1.13c.27-.18.39-.21.55,0l.3.43c.09.12.06.3-.12.49a7.37,7.37,0,0,1-4.42,1.43c-3.73,0-6-2.87-6-6.44S174.34,55.58,178.07,55.58Zm4.18,5.67c0-2.38-1.44-4.45-4.18-4.45a4.53,4.53,0,0,0-4.64,4.45Z"/><path class="cls-1" d="M187.19,56.28a.4.4,0,0,1,.4-.4H188a.34.34,0,0,1,.34.31l.15,1.31a5.33,5.33,0,0,1,4.21-1.92,4.24,4.24,0,0,1,4,2.22,6.19,6.19,0,0,1,4.58-2.22c3.32,0,4.76,2.16,4.76,5.58v6.53a.41.41,0,0,1-.4.4H205a.37.37,0,0,1-.34-.4V61.16c0-2.81-1.22-4.27-3.51-4.27a5.19,5.19,0,0,0-4,2.07,8.18,8.18,0,0,1,.27,2.2v6.53a.41.41,0,0,1-.4.4h-.58a.36.36,0,0,1-.36-.4V61.16c0-2.81-1.25-4.27-3.54-4.27a4.94,4.94,0,0,0-4,2.1v8.7a.36.36,0,0,1-.4.4h-.61a.36.36,0,0,1-.33-.4Z"/><path class="cls-1" d="M215.69,55.58A6.41,6.41,0,1,1,209.55,62,6.26,6.26,0,0,1,215.69,55.58Zm0,11.56A5.15,5.15,0,1,0,210.87,62,5,5,0,0,0,215.69,67.14Z"/><path class="cls-1" d="M225.54,56.28a.41.41,0,0,1,.4-.4h.37a.36.36,0,0,1,.36.34l.12,1.25a4.69,4.69,0,0,1,3.82-1.89,5.12,5.12,0,0,1,1.89.36c.27.09.43.31.34.55l-.25.61c-.09.22-.27.25-.49.15a3.9,3.9,0,0,0-1.58-.36,4.29,4.29,0,0,0-3.63,2.1v8.7a.36.36,0,0,1-.4.4h-.61a.37.37,0,0,1-.34-.4Z"/><path class="cls-1" d="M235.06,48.89a1,1,0,1,1,2.08,0,1,1,0,0,1-2.08,0Zm.37,7.39a.4.4,0,0,1,.4-.4h.55a.4.4,0,0,1,.39.4V67.69a.36.36,0,0,1-.39.4h-.62a.36.36,0,0,1-.33-.4Z"/><path class="cls-1" d="M245.56,60.21a10.07,10.07,0,0,1,3.08.55c0-2.68-.27-4-2.68-4a9.07,9.07,0,0,0-3.67.82.31.31,0,0,1-.45-.24l-.16-.37a.32.32,0,0,1,.19-.46,8.89,8.89,0,0,1,4.18-.91c3.72,0,3.87,2.22,3.87,5.34v6.77a.41.41,0,0,1-.39.4h-.37c-.21,0-.3-.13-.37-.34l-.12-1.1a6.39,6.39,0,0,1-4.24,1.74,3.84,3.84,0,0,1-4-4.06C240.43,62,242.36,60.21,245.56,60.21Zm-1,7a5.57,5.57,0,0,0,4.06-1.89V62a8,8,0,0,0-3.08-.64c-2.32,0-3.88,1.19-3.88,3A2.76,2.76,0,0,0,244.58,67.2Z"/><path class="cls-1" d="M138,14.05a17,17,0,0,0-4.38-5L137,3.21h0A2.21,2.21,0,0,0,133.15,1h0l-3.37,5.85a17,17,0,1,0,8.21,7.2Zm-7.93,20.28a13.6,13.6,0,1,1,5-18.58A13.6,13.6,0,0,1,130.06,34.33Z"/></svg>